<mxfile host="app.diagrams.net" modified="2023-04-27T23:12:35.653Z" agent="Mozilla/5.0 (Windows NT 10.0; Win64; x64) AppleWebKit/537.36 (KHTML, like Gecko) Chrome/112.0.0.0 Safari/537.36 Edg/112.0.1722.58" etag="SFRPKk2UCCRy5QBuJttq" version="21.2.3" type="device">
  <diagram name="Page-1" id="PkPkcPsdm3YvoPZqW9ZE">
    <mxGraphModel dx="4468" dy="716" grid="1" gridSize="10" guides="1" tooltips="1" connect="1" arrows="1" fold="1" page="1" pageScale="1" pageWidth="1200" pageHeight="1600" math="0" shadow="0">
      <root>
        <mxCell id="0" />
        <mxCell id="1" parent="0" />
        <mxCell id="50ml9UzkDoaz7rRn15qy-152" value="" style="rounded=0;whiteSpace=wrap;html=1;fillColor=#dae8fc;strokeColor=#6c8ebf;container=0;" vertex="1" parent="1">
          <mxGeometry x="-1320" y="1055.69" width="380" height="93.75" as="geometry" />
        </mxCell>
        <mxCell id="HmtyADd9bvggswju7NMW-21" value="" style="group;movable=1;resizable=1;rotatable=1;deletable=1;editable=1;locked=0;connectable=1;" parent="1" vertex="1" connectable="0">
          <mxGeometry x="-2450" y="1250" width="210" height="120" as="geometry" />
        </mxCell>
        <mxCell id="kk3THTOy6dKuFwCp_Lxx-1" value="" style="group;movable=1;resizable=1;rotatable=1;deletable=1;editable=1;locked=0;connectable=1;" parent="HmtyADd9bvggswju7NMW-21" connectable="0" vertex="1">
          <mxGeometry x="260" y="-100" width="210" height="100" as="geometry" />
        </mxCell>
        <mxCell id="q9BfA_OA_zZqtC3AqU1K-202" value="" style="whiteSpace=wrap;html=1;fillColor=#dae8fc;strokeColor=#6c8ebf;movable=1;resizable=1;rotatable=1;deletable=1;editable=1;locked=0;connectable=1;" parent="kk3THTOy6dKuFwCp_Lxx-1" vertex="1">
          <mxGeometry width="210" height="100" as="geometry" />
        </mxCell>
        <mxCell id="wgL369HM5ECdO7fE-a8m-115" value="&amp;lt;p_complex_type&amp;gt;" style="text;html=1;align=center;verticalAlign=middle;resizable=1;points=[];autosize=1;strokeColor=none;fillColor=none;movable=1;rotatable=1;deletable=1;editable=1;locked=0;connectable=1;" parent="kk3THTOy6dKuFwCp_Lxx-1" vertex="1">
          <mxGeometry y="10" width="120" height="30" as="geometry" />
        </mxCell>
        <mxCell id="wgL369HM5ECdO7fE-a8m-124" value="&amp;lt;p_vector&amp;gt;" style="rounded=1;whiteSpace=wrap;html=1;movable=1;resizable=1;rotatable=1;deletable=1;editable=1;locked=0;connectable=1;" parent="kk3THTOy6dKuFwCp_Lxx-1" vertex="1">
          <mxGeometry x="85" y="52.5" width="105" height="27.5" as="geometry" />
        </mxCell>
        <mxCell id="wgL369HM5ECdO7fE-a8m-125" style="edgeStyle=orthogonalEdgeStyle;rounded=0;orthogonalLoop=1;jettySize=auto;html=1;entryX=0;entryY=0.5;entryDx=0;entryDy=0;movable=1;resizable=1;rotatable=1;deletable=1;editable=1;locked=0;connectable=1;" parent="kk3THTOy6dKuFwCp_Lxx-1" source="wgL369HM5ECdO7fE-a8m-115" target="wgL369HM5ECdO7fE-a8m-124" edge="1">
          <mxGeometry relative="1" as="geometry" />
        </mxCell>
        <mxCell id="IAqsvyEQFpxWH6oGdPEo-30" value="" style="group;movable=1;resizable=1;rotatable=1;deletable=1;editable=1;locked=0;connectable=1;" parent="1" vertex="1" connectable="0">
          <mxGeometry x="-1973.75" y="1150" width="99.5" height="60" as="geometry" />
        </mxCell>
        <mxCell id="IAqsvyEQFpxWH6oGdPEo-29" value="" style="whiteSpace=wrap;html=1;fillColor=#dae8fc;strokeColor=#6c8ebf;movable=1;resizable=1;rotatable=1;deletable=1;editable=1;locked=0;connectable=1;" parent="IAqsvyEQFpxWH6oGdPEo-30" vertex="1">
          <mxGeometry width="99.5" height="60" as="geometry" />
        </mxCell>
        <mxCell id="IAqsvyEQFpxWH6oGdPEo-26" style="edgeStyle=orthogonalEdgeStyle;rounded=0;orthogonalLoop=1;jettySize=auto;html=1;movable=1;resizable=1;rotatable=1;deletable=1;editable=1;locked=0;connectable=1;" parent="IAqsvyEQFpxWH6oGdPEo-30" source="IAqsvyEQFpxWH6oGdPEo-3" edge="1">
          <mxGeometry relative="1" as="geometry">
            <mxPoint x="69.5" y="50" as="targetPoint" />
          </mxGeometry>
        </mxCell>
        <mxCell id="IAqsvyEQFpxWH6oGdPEo-3" value="&amp;lt;p_empty&amp;gt;" style="text;html=1;align=center;verticalAlign=middle;resizable=1;points=[];autosize=1;strokeColor=none;fillColor=none;movable=1;rotatable=1;deletable=1;editable=1;locked=0;connectable=1;" parent="IAqsvyEQFpxWH6oGdPEo-30" vertex="1">
          <mxGeometry x="9.5" width="80" height="30" as="geometry" />
        </mxCell>
        <mxCell id="q9BfA_OA_zZqtC3AqU1K-158" value="" style="group" parent="1" vertex="1" connectable="0">
          <mxGeometry x="-2380" y="230" width="660" height="160" as="geometry" />
        </mxCell>
        <mxCell id="q9BfA_OA_zZqtC3AqU1K-157" value="" style="rounded=0;whiteSpace=wrap;html=1;fillColor=#dae8fc;strokeColor=#6c8ebf;" parent="q9BfA_OA_zZqtC3AqU1K-158" vertex="1">
          <mxGeometry width="660" height="160" as="geometry" />
        </mxCell>
        <mxCell id="q9BfA_OA_zZqtC3AqU1K-51" value="&amp;lt;p_variable&amp;gt;" style="text;html=1;align=center;verticalAlign=middle;resizable=0;points=[];autosize=1;strokeColor=none;fillColor=none;" parent="q9BfA_OA_zZqtC3AqU1K-158" vertex="1">
          <mxGeometry x="10.662358642972535" width="90" height="30" as="geometry" />
        </mxCell>
        <mxCell id="q9BfA_OA_zZqtC3AqU1K-108" style="edgeStyle=orthogonalEdgeStyle;rounded=0;orthogonalLoop=1;jettySize=auto;html=1;" parent="q9BfA_OA_zZqtC3AqU1K-158" source="q9BfA_OA_zZqtC3AqU1K-74" edge="1">
          <mxGeometry relative="1" as="geometry">
            <mxPoint x="651.470113085622" y="55" as="targetPoint" />
          </mxGeometry>
        </mxCell>
        <mxCell id="q9BfA_OA_zZqtC3AqU1K-74" value="ID" style="ellipse;whiteSpace=wrap;html=1;" parent="q9BfA_OA_zZqtC3AqU1K-158" vertex="1">
          <mxGeometry x="75.702746365105" y="40" width="51.17932148626817" height="30" as="geometry" />
        </mxCell>
        <mxCell id="q9BfA_OA_zZqtC3AqU1K-75" style="edgeStyle=orthogonalEdgeStyle;rounded=0;orthogonalLoop=1;jettySize=auto;html=1;entryX=0;entryY=0.5;entryDx=0;entryDy=0;" parent="q9BfA_OA_zZqtC3AqU1K-158" source="q9BfA_OA_zZqtC3AqU1K-51" target="q9BfA_OA_zZqtC3AqU1K-74" edge="1">
          <mxGeometry relative="1" as="geometry" />
        </mxCell>
        <mxCell id="q9BfA_OA_zZqtC3AqU1K-77" value="[" style="ellipse;whiteSpace=wrap;html=1;" parent="q9BfA_OA_zZqtC3AqU1K-158" vertex="1">
          <mxGeometry x="131.14701130856218" y="110" width="51.17932148626817" height="30" as="geometry" />
        </mxCell>
        <mxCell id="q9BfA_OA_zZqtC3AqU1K-106" style="edgeStyle=orthogonalEdgeStyle;rounded=0;orthogonalLoop=1;jettySize=auto;html=1;entryX=0.5;entryY=0;entryDx=0;entryDy=0;" parent="q9BfA_OA_zZqtC3AqU1K-158" source="q9BfA_OA_zZqtC3AqU1K-74" target="q9BfA_OA_zZqtC3AqU1K-77" edge="1">
          <mxGeometry relative="1" as="geometry" />
        </mxCell>
        <mxCell id="q9BfA_OA_zZqtC3AqU1K-109" style="edgeStyle=orthogonalEdgeStyle;rounded=0;orthogonalLoop=1;jettySize=auto;html=1;" parent="q9BfA_OA_zZqtC3AqU1K-158" source="q9BfA_OA_zZqtC3AqU1K-79" edge="1">
          <mxGeometry relative="1" as="geometry">
            <mxPoint x="332.6655896607431" y="50" as="targetPoint" />
          </mxGeometry>
        </mxCell>
        <mxCell id="q9BfA_OA_zZqtC3AqU1K-79" value="]" style="ellipse;whiteSpace=wrap;html=1;" parent="q9BfA_OA_zZqtC3AqU1K-158" vertex="1">
          <mxGeometry x="307.0759289176091" y="110" width="51.17932148626817" height="30" as="geometry" />
        </mxCell>
        <mxCell id="q9BfA_OA_zZqtC3AqU1K-99" style="edgeStyle=orthogonalEdgeStyle;rounded=0;orthogonalLoop=1;jettySize=auto;html=1;" parent="q9BfA_OA_zZqtC3AqU1K-158" source="q9BfA_OA_zZqtC3AqU1K-97" target="q9BfA_OA_zZqtC3AqU1K-79" edge="1">
          <mxGeometry relative="1" as="geometry" />
        </mxCell>
        <mxCell id="q9BfA_OA_zZqtC3AqU1K-97" value="&amp;lt;p_expression&amp;gt;" style="rounded=1;whiteSpace=wrap;html=1;" parent="q9BfA_OA_zZqtC3AqU1K-158" vertex="1">
          <mxGeometry x="204.7172859450727" y="111.25" width="81.03392568659129" height="27.5" as="geometry" />
        </mxCell>
        <mxCell id="q9BfA_OA_zZqtC3AqU1K-98" style="edgeStyle=orthogonalEdgeStyle;rounded=0;orthogonalLoop=1;jettySize=auto;html=1;entryX=0;entryY=0.5;entryDx=0;entryDy=0;" parent="q9BfA_OA_zZqtC3AqU1K-158" source="q9BfA_OA_zZqtC3AqU1K-77" target="q9BfA_OA_zZqtC3AqU1K-97" edge="1">
          <mxGeometry relative="1" as="geometry" />
        </mxCell>
        <mxCell id="q9BfA_OA_zZqtC3AqU1K-102" value="[" style="ellipse;whiteSpace=wrap;html=1;" parent="q9BfA_OA_zZqtC3AqU1K-158" vertex="1">
          <mxGeometry x="378.51373182552504" y="110" width="51.17932148626817" height="30" as="geometry" />
        </mxCell>
        <mxCell id="q9BfA_OA_zZqtC3AqU1K-107" style="edgeStyle=orthogonalEdgeStyle;rounded=0;orthogonalLoop=1;jettySize=auto;html=1;entryX=0;entryY=0.5;entryDx=0;entryDy=0;" parent="q9BfA_OA_zZqtC3AqU1K-158" source="q9BfA_OA_zZqtC3AqU1K-79" target="q9BfA_OA_zZqtC3AqU1K-102" edge="1">
          <mxGeometry relative="1" as="geometry" />
        </mxCell>
        <mxCell id="q9BfA_OA_zZqtC3AqU1K-134" style="edgeStyle=orthogonalEdgeStyle;rounded=0;orthogonalLoop=1;jettySize=auto;html=1;" parent="q9BfA_OA_zZqtC3AqU1K-158" source="q9BfA_OA_zZqtC3AqU1K-103" edge="1">
          <mxGeometry relative="1" as="geometry">
            <mxPoint x="580.032310177706" y="50" as="targetPoint" />
          </mxGeometry>
        </mxCell>
        <mxCell id="q9BfA_OA_zZqtC3AqU1K-103" value="]" style="ellipse;whiteSpace=wrap;html=1;" parent="q9BfA_OA_zZqtC3AqU1K-158" vertex="1">
          <mxGeometry x="554.4426494345719" y="110" width="51.17932148626817" height="30" as="geometry" />
        </mxCell>
        <mxCell id="q9BfA_OA_zZqtC3AqU1K-104" style="edgeStyle=orthogonalEdgeStyle;rounded=0;orthogonalLoop=1;jettySize=auto;html=1;" parent="q9BfA_OA_zZqtC3AqU1K-158" source="q9BfA_OA_zZqtC3AqU1K-105" target="q9BfA_OA_zZqtC3AqU1K-103" edge="1">
          <mxGeometry relative="1" as="geometry" />
        </mxCell>
        <mxCell id="q9BfA_OA_zZqtC3AqU1K-105" value="&amp;lt;p_expression&amp;gt;" style="rounded=1;whiteSpace=wrap;html=1;" parent="q9BfA_OA_zZqtC3AqU1K-158" vertex="1">
          <mxGeometry x="452.0840064620355" y="111.25" width="81.03392568659129" height="27.5" as="geometry" />
        </mxCell>
        <mxCell id="q9BfA_OA_zZqtC3AqU1K-101" style="edgeStyle=orthogonalEdgeStyle;rounded=0;orthogonalLoop=1;jettySize=auto;html=1;entryX=0;entryY=0.5;entryDx=0;entryDy=0;" parent="q9BfA_OA_zZqtC3AqU1K-158" source="q9BfA_OA_zZqtC3AqU1K-102" target="q9BfA_OA_zZqtC3AqU1K-105" edge="1">
          <mxGeometry relative="1" as="geometry" />
        </mxCell>
        <mxCell id="q9BfA_OA_zZqtC3AqU1K-201" value="" style="group;movable=1;resizable=1;rotatable=1;deletable=1;editable=1;locked=0;connectable=1;" parent="1" vertex="1" connectable="0">
          <mxGeometry x="-2380" y="1149.44" width="180" height="130" as="geometry" />
        </mxCell>
        <mxCell id="q9BfA_OA_zZqtC3AqU1K-200" value="" style="whiteSpace=wrap;html=1;fillColor=#dae8fc;strokeColor=#6c8ebf;movable=1;resizable=1;rotatable=1;deletable=1;editable=1;locked=0;connectable=1;" parent="q9BfA_OA_zZqtC3AqU1K-201" vertex="1">
          <mxGeometry width="180" height="130" as="geometry" />
        </mxCell>
        <mxCell id="wgL369HM5ECdO7fE-a8m-117" value="&amp;lt;p_type&amp;gt;" style="text;html=1;align=center;verticalAlign=middle;resizable=1;points=[];autosize=1;strokeColor=none;fillColor=none;movable=1;rotatable=1;deletable=1;editable=1;locked=0;connectable=1;" parent="q9BfA_OA_zZqtC3AqU1K-201" vertex="1">
          <mxGeometry width="70" height="30" as="geometry" />
        </mxCell>
        <mxCell id="wgL369HM5ECdO7fE-a8m-119" value="&amp;lt;p_simple_type&amp;gt;" style="rounded=1;whiteSpace=wrap;html=1;movable=1;resizable=1;rotatable=1;deletable=1;editable=1;locked=0;connectable=1;" parent="q9BfA_OA_zZqtC3AqU1K-201" vertex="1">
          <mxGeometry x="60" y="48.75" width="105" height="27.5" as="geometry" />
        </mxCell>
        <mxCell id="wgL369HM5ECdO7fE-a8m-129" style="edgeStyle=orthogonalEdgeStyle;rounded=0;orthogonalLoop=1;jettySize=auto;html=1;entryX=0;entryY=0.5;entryDx=0;entryDy=0;movable=1;resizable=1;rotatable=1;deletable=1;editable=1;locked=0;connectable=1;" parent="q9BfA_OA_zZqtC3AqU1K-201" source="wgL369HM5ECdO7fE-a8m-117" target="wgL369HM5ECdO7fE-a8m-119" edge="1">
          <mxGeometry relative="1" as="geometry" />
        </mxCell>
        <mxCell id="wgL369HM5ECdO7fE-a8m-127" value="&amp;lt;p_complex_type&amp;gt;" style="rounded=1;whiteSpace=wrap;html=1;movable=1;resizable=1;rotatable=1;deletable=1;editable=1;locked=0;connectable=1;" parent="q9BfA_OA_zZqtC3AqU1K-201" vertex="1">
          <mxGeometry x="60" y="92.5" width="105" height="27.5" as="geometry" />
        </mxCell>
        <mxCell id="wgL369HM5ECdO7fE-a8m-130" style="edgeStyle=orthogonalEdgeStyle;rounded=0;orthogonalLoop=1;jettySize=auto;html=1;entryX=0;entryY=0.5;entryDx=0;entryDy=0;movable=1;resizable=1;rotatable=1;deletable=1;editable=1;locked=0;connectable=1;" parent="q9BfA_OA_zZqtC3AqU1K-201" source="wgL369HM5ECdO7fE-a8m-117" target="wgL369HM5ECdO7fE-a8m-127" edge="1">
          <mxGeometry relative="1" as="geometry" />
        </mxCell>
        <mxCell id="kk3THTOy6dKuFwCp_Lxx-41" value="" style="group;movable=1;resizable=1;rotatable=1;deletable=1;editable=1;locked=0;connectable=1;" parent="1" connectable="0" vertex="1">
          <mxGeometry x="-2380" y="1290" width="202.5" height="240" as="geometry" />
        </mxCell>
        <mxCell id="wgL369HM5ECdO7fE-a8m-226" value="" style="whiteSpace=wrap;html=1;fillColor=#dae8fc;strokeColor=#6c8ebf;movable=1;resizable=1;rotatable=1;deletable=1;editable=1;locked=0;connectable=1;" parent="kk3THTOy6dKuFwCp_Lxx-41" vertex="1">
          <mxGeometry width="202.5" height="240" as="geometry" />
        </mxCell>
        <mxCell id="wgL369HM5ECdO7fE-a8m-206" value="&amp;lt;p_cte&amp;gt;" style="text;html=1;align=center;verticalAlign=middle;resizable=1;points=[];autosize=1;strokeColor=none;fillColor=none;movable=1;rotatable=1;deletable=1;editable=1;locked=0;connectable=1;container=0;" parent="kk3THTOy6dKuFwCp_Lxx-41" vertex="1">
          <mxGeometry width="70" height="30" as="geometry" />
        </mxCell>
        <mxCell id="wgL369HM5ECdO7fE-a8m-216" style="edgeStyle=orthogonalEdgeStyle;rounded=0;orthogonalLoop=1;jettySize=auto;html=1;movable=1;resizable=1;rotatable=1;deletable=1;editable=1;locked=0;connectable=1;" parent="kk3THTOy6dKuFwCp_Lxx-41" source="wgL369HM5ECdO7fE-a8m-207" edge="1">
          <mxGeometry relative="1" as="geometry">
            <mxPoint x="190" y="55" as="targetPoint" />
          </mxGeometry>
        </mxCell>
        <mxCell id="wgL369HM5ECdO7fE-a8m-207" value="CTEI" style="ellipse;whiteSpace=wrap;html=1;movable=1;resizable=1;rotatable=1;deletable=1;editable=1;locked=0;connectable=1;container=0;" parent="kk3THTOy6dKuFwCp_Lxx-41" vertex="1">
          <mxGeometry x="55" y="40" width="60" height="30" as="geometry" />
        </mxCell>
        <mxCell id="wgL369HM5ECdO7fE-a8m-201" style="edgeStyle=orthogonalEdgeStyle;rounded=0;orthogonalLoop=1;jettySize=auto;html=1;entryX=0;entryY=0.5;entryDx=0;entryDy=0;movable=1;resizable=1;rotatable=1;deletable=1;editable=1;locked=0;connectable=1;" parent="kk3THTOy6dKuFwCp_Lxx-41" source="wgL369HM5ECdO7fE-a8m-206" target="wgL369HM5ECdO7fE-a8m-207" edge="1">
          <mxGeometry relative="1" as="geometry" />
        </mxCell>
        <mxCell id="wgL369HM5ECdO7fE-a8m-208" style="edgeStyle=orthogonalEdgeStyle;rounded=0;orthogonalLoop=1;jettySize=auto;html=1;movable=1;resizable=1;rotatable=1;deletable=1;editable=1;locked=0;connectable=1;" parent="kk3THTOy6dKuFwCp_Lxx-41" source="wgL369HM5ECdO7fE-a8m-209" edge="1">
          <mxGeometry relative="1" as="geometry">
            <mxPoint x="150" y="50" as="targetPoint" />
          </mxGeometry>
        </mxCell>
        <mxCell id="wgL369HM5ECdO7fE-a8m-209" value="CTEF" style="ellipse;whiteSpace=wrap;html=1;movable=1;resizable=1;rotatable=1;deletable=1;editable=1;locked=0;connectable=1;container=0;" parent="kk3THTOy6dKuFwCp_Lxx-41" vertex="1">
          <mxGeometry x="55" y="80" width="60" height="30" as="geometry" />
        </mxCell>
        <mxCell id="wgL369HM5ECdO7fE-a8m-202" style="edgeStyle=orthogonalEdgeStyle;rounded=0;orthogonalLoop=1;jettySize=auto;html=1;entryX=0;entryY=0.5;entryDx=0;entryDy=0;movable=1;resizable=1;rotatable=1;deletable=1;editable=1;locked=0;connectable=1;" parent="kk3THTOy6dKuFwCp_Lxx-41" source="wgL369HM5ECdO7fE-a8m-206" target="wgL369HM5ECdO7fE-a8m-209" edge="1">
          <mxGeometry relative="1" as="geometry" />
        </mxCell>
        <mxCell id="wgL369HM5ECdO7fE-a8m-210" style="edgeStyle=orthogonalEdgeStyle;rounded=0;orthogonalLoop=1;jettySize=auto;html=1;movable=1;resizable=1;rotatable=1;deletable=1;editable=1;locked=0;connectable=1;" parent="kk3THTOy6dKuFwCp_Lxx-41" source="wgL369HM5ECdO7fE-a8m-211" edge="1">
          <mxGeometry relative="1" as="geometry">
            <mxPoint x="150" y="90" as="targetPoint" />
          </mxGeometry>
        </mxCell>
        <mxCell id="wgL369HM5ECdO7fE-a8m-211" value="CTEC" style="ellipse;whiteSpace=wrap;html=1;movable=1;resizable=1;rotatable=1;deletable=1;editable=1;locked=0;connectable=1;container=0;" parent="kk3THTOy6dKuFwCp_Lxx-41" vertex="1">
          <mxGeometry x="55" y="120" width="60" height="30" as="geometry" />
        </mxCell>
        <mxCell id="wgL369HM5ECdO7fE-a8m-203" style="edgeStyle=orthogonalEdgeStyle;rounded=0;orthogonalLoop=1;jettySize=auto;html=1;entryX=0;entryY=0.5;entryDx=0;entryDy=0;movable=1;resizable=1;rotatable=1;deletable=1;editable=1;locked=0;connectable=1;" parent="kk3THTOy6dKuFwCp_Lxx-41" source="wgL369HM5ECdO7fE-a8m-206" target="wgL369HM5ECdO7fE-a8m-211" edge="1">
          <mxGeometry relative="1" as="geometry" />
        </mxCell>
        <mxCell id="wgL369HM5ECdO7fE-a8m-212" style="edgeStyle=orthogonalEdgeStyle;rounded=0;orthogonalLoop=1;jettySize=auto;html=1;exitX=1;exitY=0.5;exitDx=0;exitDy=0;movable=1;resizable=1;rotatable=1;deletable=1;editable=1;locked=0;connectable=1;" parent="kk3THTOy6dKuFwCp_Lxx-41" source="wgL369HM5ECdO7fE-a8m-213" edge="1">
          <mxGeometry relative="1" as="geometry">
            <mxPoint x="150" y="130" as="targetPoint" />
          </mxGeometry>
        </mxCell>
        <mxCell id="wgL369HM5ECdO7fE-a8m-213" value="CTES" style="ellipse;whiteSpace=wrap;html=1;movable=1;resizable=1;rotatable=1;deletable=1;editable=1;locked=0;connectable=1;container=0;" parent="kk3THTOy6dKuFwCp_Lxx-41" vertex="1">
          <mxGeometry x="55" y="160" width="60" height="30" as="geometry" />
        </mxCell>
        <mxCell id="wgL369HM5ECdO7fE-a8m-204" style="edgeStyle=orthogonalEdgeStyle;rounded=0;orthogonalLoop=1;jettySize=auto;html=1;entryX=0;entryY=0.5;entryDx=0;entryDy=0;movable=1;resizable=1;rotatable=1;deletable=1;editable=1;locked=0;connectable=1;" parent="kk3THTOy6dKuFwCp_Lxx-41" source="wgL369HM5ECdO7fE-a8m-206" target="wgL369HM5ECdO7fE-a8m-213" edge="1">
          <mxGeometry relative="1" as="geometry" />
        </mxCell>
        <mxCell id="wgL369HM5ECdO7fE-a8m-214" style="edgeStyle=orthogonalEdgeStyle;rounded=0;orthogonalLoop=1;jettySize=auto;html=1;movable=1;resizable=1;rotatable=1;deletable=1;editable=1;locked=0;connectable=1;" parent="kk3THTOy6dKuFwCp_Lxx-41" source="wgL369HM5ECdO7fE-a8m-215" edge="1">
          <mxGeometry relative="1" as="geometry">
            <mxPoint x="150" y="170" as="targetPoint" />
          </mxGeometry>
        </mxCell>
        <mxCell id="wgL369HM5ECdO7fE-a8m-215" value="CTEB" style="ellipse;whiteSpace=wrap;html=1;movable=1;resizable=1;rotatable=1;deletable=1;editable=1;locked=0;connectable=1;container=0;" parent="kk3THTOy6dKuFwCp_Lxx-41" vertex="1">
          <mxGeometry x="55" y="200" width="60" height="30" as="geometry" />
        </mxCell>
        <mxCell id="wgL369HM5ECdO7fE-a8m-205" style="edgeStyle=orthogonalEdgeStyle;rounded=0;orthogonalLoop=1;jettySize=auto;html=1;entryX=0;entryY=0.5;entryDx=0;entryDy=0;movable=1;resizable=1;rotatable=1;deletable=1;editable=1;locked=0;connectable=1;" parent="kk3THTOy6dKuFwCp_Lxx-41" source="wgL369HM5ECdO7fE-a8m-206" target="wgL369HM5ECdO7fE-a8m-215" edge="1">
          <mxGeometry relative="1" as="geometry" />
        </mxCell>
        <mxCell id="kk3THTOy6dKuFwCp_Lxx-42" value="" style="group;movable=1;resizable=1;rotatable=1;deletable=1;editable=1;locked=0;connectable=1;" parent="1" connectable="0" vertex="1">
          <mxGeometry x="-2166.25" y="1260.28" width="202.5" height="240" as="geometry" />
        </mxCell>
        <mxCell id="wgL369HM5ECdO7fE-a8m-227" value="" style="whiteSpace=wrap;html=1;fillColor=#dae8fc;strokeColor=#6c8ebf;movable=1;resizable=1;rotatable=1;deletable=1;editable=1;locked=0;connectable=1;" parent="kk3THTOy6dKuFwCp_Lxx-42" vertex="1">
          <mxGeometry width="202.5" height="240" as="geometry" />
        </mxCell>
        <mxCell id="wgL369HM5ECdO7fE-a8m-5" value="&amp;lt;p_simple_type&amp;gt;" style="text;html=1;align=center;verticalAlign=middle;resizable=1;points=[];autosize=1;strokeColor=none;fillColor=none;movable=1;rotatable=1;deletable=1;editable=1;locked=0;connectable=1;" parent="kk3THTOy6dKuFwCp_Lxx-42" vertex="1">
          <mxGeometry width="110" height="30" as="geometry" />
        </mxCell>
        <mxCell id="wgL369HM5ECdO7fE-a8m-41" style="edgeStyle=orthogonalEdgeStyle;rounded=0;orthogonalLoop=1;jettySize=auto;html=1;exitX=1;exitY=0.5;exitDx=0;exitDy=0;movable=1;resizable=1;rotatable=1;deletable=1;editable=1;locked=0;connectable=1;" parent="kk3THTOy6dKuFwCp_Lxx-42" source="wgL369HM5ECdO7fE-a8m-6" edge="1">
          <mxGeometry relative="1" as="geometry">
            <mxPoint x="185" y="55" as="targetPoint" />
          </mxGeometry>
        </mxCell>
        <mxCell id="wgL369HM5ECdO7fE-a8m-6" value="INT" style="ellipse;whiteSpace=wrap;html=1;movable=1;resizable=1;rotatable=1;deletable=1;editable=1;locked=0;connectable=1;" parent="kk3THTOy6dKuFwCp_Lxx-42" vertex="1">
          <mxGeometry x="75" y="40" width="60" height="30" as="geometry" />
        </mxCell>
        <mxCell id="wgL369HM5ECdO7fE-a8m-10" style="edgeStyle=orthogonalEdgeStyle;rounded=0;orthogonalLoop=1;jettySize=auto;html=1;entryX=0;entryY=0.5;entryDx=0;entryDy=0;movable=1;resizable=1;rotatable=1;deletable=1;editable=1;locked=0;connectable=1;" parent="kk3THTOy6dKuFwCp_Lxx-42" source="wgL369HM5ECdO7fE-a8m-5" target="wgL369HM5ECdO7fE-a8m-6" edge="1">
          <mxGeometry relative="1" as="geometry" />
        </mxCell>
        <mxCell id="wgL369HM5ECdO7fE-a8m-113" style="edgeStyle=orthogonalEdgeStyle;rounded=0;orthogonalLoop=1;jettySize=auto;html=1;movable=1;resizable=1;rotatable=1;deletable=1;editable=1;locked=0;connectable=1;" parent="kk3THTOy6dKuFwCp_Lxx-42" source="wgL369HM5ECdO7fE-a8m-7" edge="1">
          <mxGeometry relative="1" as="geometry">
            <mxPoint x="170" y="50" as="targetPoint" />
          </mxGeometry>
        </mxCell>
        <mxCell id="wgL369HM5ECdO7fE-a8m-7" value="FLOAT" style="ellipse;whiteSpace=wrap;html=1;movable=1;resizable=1;rotatable=1;deletable=1;editable=1;locked=0;connectable=1;" parent="kk3THTOy6dKuFwCp_Lxx-42" vertex="1">
          <mxGeometry x="75" y="80" width="60" height="30" as="geometry" />
        </mxCell>
        <mxCell id="wgL369HM5ECdO7fE-a8m-11" style="edgeStyle=orthogonalEdgeStyle;rounded=0;orthogonalLoop=1;jettySize=auto;html=1;entryX=0;entryY=0.5;entryDx=0;entryDy=0;movable=1;resizable=1;rotatable=1;deletable=1;editable=1;locked=0;connectable=1;" parent="kk3THTOy6dKuFwCp_Lxx-42" source="wgL369HM5ECdO7fE-a8m-5" target="wgL369HM5ECdO7fE-a8m-7" edge="1">
          <mxGeometry relative="1" as="geometry" />
        </mxCell>
        <mxCell id="wgL369HM5ECdO7fE-a8m-114" style="edgeStyle=orthogonalEdgeStyle;rounded=0;orthogonalLoop=1;jettySize=auto;html=1;movable=1;resizable=1;rotatable=1;deletable=1;editable=1;locked=0;connectable=1;" parent="kk3THTOy6dKuFwCp_Lxx-42" source="wgL369HM5ECdO7fE-a8m-8" edge="1">
          <mxGeometry relative="1" as="geometry">
            <mxPoint x="170" y="90" as="targetPoint" />
          </mxGeometry>
        </mxCell>
        <mxCell id="wgL369HM5ECdO7fE-a8m-8" value="CHAR" style="ellipse;whiteSpace=wrap;html=1;movable=1;resizable=1;rotatable=1;deletable=1;editable=1;locked=0;connectable=1;" parent="kk3THTOy6dKuFwCp_Lxx-42" vertex="1">
          <mxGeometry x="75" y="120" width="60" height="30" as="geometry" />
        </mxCell>
        <mxCell id="wgL369HM5ECdO7fE-a8m-12" style="edgeStyle=orthogonalEdgeStyle;rounded=0;orthogonalLoop=1;jettySize=auto;html=1;entryX=0;entryY=0.5;entryDx=0;entryDy=0;movable=1;resizable=1;rotatable=1;deletable=1;editable=1;locked=0;connectable=1;" parent="kk3THTOy6dKuFwCp_Lxx-42" source="wgL369HM5ECdO7fE-a8m-5" target="wgL369HM5ECdO7fE-a8m-8" edge="1">
          <mxGeometry relative="1" as="geometry" />
        </mxCell>
        <mxCell id="wgL369HM5ECdO7fE-a8m-111" style="edgeStyle=orthogonalEdgeStyle;rounded=0;orthogonalLoop=1;jettySize=auto;html=1;exitX=1;exitY=0.5;exitDx=0;exitDy=0;movable=1;resizable=1;rotatable=1;deletable=1;editable=1;locked=0;connectable=1;" parent="kk3THTOy6dKuFwCp_Lxx-42" source="wgL369HM5ECdO7fE-a8m-107" edge="1">
          <mxGeometry relative="1" as="geometry">
            <mxPoint x="170" y="130" as="targetPoint" />
          </mxGeometry>
        </mxCell>
        <mxCell id="wgL369HM5ECdO7fE-a8m-107" value="STRING" style="ellipse;whiteSpace=wrap;html=1;movable=1;resizable=1;rotatable=1;deletable=1;editable=1;locked=0;connectable=1;" parent="kk3THTOy6dKuFwCp_Lxx-42" vertex="1">
          <mxGeometry x="75" y="160" width="60" height="30" as="geometry" />
        </mxCell>
        <mxCell id="wgL369HM5ECdO7fE-a8m-109" style="edgeStyle=orthogonalEdgeStyle;rounded=0;orthogonalLoop=1;jettySize=auto;html=1;entryX=0;entryY=0.5;entryDx=0;entryDy=0;movable=1;resizable=1;rotatable=1;deletable=1;editable=1;locked=0;connectable=1;" parent="kk3THTOy6dKuFwCp_Lxx-42" source="wgL369HM5ECdO7fE-a8m-5" target="wgL369HM5ECdO7fE-a8m-107" edge="1">
          <mxGeometry relative="1" as="geometry" />
        </mxCell>
        <mxCell id="wgL369HM5ECdO7fE-a8m-112" style="edgeStyle=orthogonalEdgeStyle;rounded=0;orthogonalLoop=1;jettySize=auto;html=1;movable=1;resizable=1;rotatable=1;deletable=1;editable=1;locked=0;connectable=1;" parent="kk3THTOy6dKuFwCp_Lxx-42" source="wgL369HM5ECdO7fE-a8m-108" edge="1">
          <mxGeometry relative="1" as="geometry">
            <mxPoint x="170" y="170" as="targetPoint" />
          </mxGeometry>
        </mxCell>
        <mxCell id="wgL369HM5ECdO7fE-a8m-108" value="BOOLEAN" style="ellipse;whiteSpace=wrap;html=1;movable=1;resizable=1;rotatable=1;deletable=1;editable=1;locked=0;connectable=1;" parent="kk3THTOy6dKuFwCp_Lxx-42" vertex="1">
          <mxGeometry x="75" y="200" width="60" height="30" as="geometry" />
        </mxCell>
        <mxCell id="wgL369HM5ECdO7fE-a8m-128" style="edgeStyle=orthogonalEdgeStyle;rounded=0;orthogonalLoop=1;jettySize=auto;html=1;entryX=0;entryY=0.5;entryDx=0;entryDy=0;movable=1;resizable=1;rotatable=1;deletable=1;editable=1;locked=0;connectable=1;" parent="kk3THTOy6dKuFwCp_Lxx-42" source="wgL369HM5ECdO7fE-a8m-5" target="wgL369HM5ECdO7fE-a8m-108" edge="1">
          <mxGeometry relative="1" as="geometry" />
        </mxCell>
        <mxCell id="kk3THTOy6dKuFwCp_Lxx-43" value="" style="group;movable=1;resizable=1;rotatable=1;deletable=1;editable=1;locked=0;connectable=1;" parent="1" connectable="0" vertex="1">
          <mxGeometry x="-2067.5" y="908.13" width="270" height="230" as="geometry" />
        </mxCell>
        <mxCell id="wgL369HM5ECdO7fE-a8m-309" value="" style="rounded=0;whiteSpace=wrap;html=1;fillColor=#dae8fc;strokeColor=#6c8ebf;container=0;movable=1;resizable=1;rotatable=1;deletable=1;editable=1;locked=0;connectable=1;" parent="kk3THTOy6dKuFwCp_Lxx-43" vertex="1">
          <mxGeometry width="270" height="229.99999999999994" as="geometry" />
        </mxCell>
        <mxCell id="wgL369HM5ECdO7fE-a8m-200" value="(" style="ellipse;whiteSpace=wrap;html=1;container=0;movable=1;resizable=1;rotatable=1;deletable=1;editable=1;locked=0;connectable=1;" parent="kk3THTOy6dKuFwCp_Lxx-43" vertex="1">
          <mxGeometry x="31.371428571428567" y="168.57954545454544" width="36" height="32.67045454545454" as="geometry" />
        </mxCell>
        <mxCell id="wgL369HM5ECdO7fE-a8m-256" style="edgeStyle=orthogonalEdgeStyle;rounded=0;orthogonalLoop=1;jettySize=auto;html=1;movable=1;resizable=1;rotatable=1;deletable=1;editable=1;locked=0;connectable=1;" parent="kk3THTOy6dKuFwCp_Lxx-43" source="wgL369HM5ECdO7fE-a8m-220" target="wgL369HM5ECdO7fE-a8m-200" edge="1">
          <mxGeometry relative="1" as="geometry" />
        </mxCell>
        <mxCell id="wgL369HM5ECdO7fE-a8m-220" value="&lt;span style=&quot;color: rgb(0, 0, 0); font-family: Helvetica; font-size: 12px; font-style: normal; font-variant-ligatures: normal; font-variant-caps: normal; font-weight: 400; letter-spacing: normal; orphans: 2; text-align: center; text-indent: 0px; text-transform: none; widows: 2; word-spacing: 0px; -webkit-text-stroke-width: 0px; text-decoration-thickness: initial; text-decoration-style: initial; text-decoration-color: initial; float: none; display: inline !important;&quot;&gt;&amp;lt;p_factor&amp;gt;&lt;/span&gt;" style="text;whiteSpace=wrap;html=1;container=0;movable=1;resizable=1;rotatable=1;deletable=1;editable=1;locked=0;connectable=1;" parent="kk3THTOy6dKuFwCp_Lxx-43" vertex="1">
          <mxGeometry x="15.942857142857141" width="66.85714285714285" height="31.363636363636356" as="geometry" />
        </mxCell>
        <mxCell id="wgL369HM5ECdO7fE-a8m-263" style="edgeStyle=orthogonalEdgeStyle;rounded=0;orthogonalLoop=1;jettySize=auto;html=1;movable=1;resizable=1;rotatable=1;deletable=1;editable=1;locked=0;connectable=1;" parent="kk3THTOy6dKuFwCp_Lxx-43" source="wgL369HM5ECdO7fE-a8m-222" edge="1">
          <mxGeometry relative="1" as="geometry">
            <mxPoint x="195.94285714285712" y="52.27272727272726" as="targetPoint" />
          </mxGeometry>
        </mxCell>
        <mxCell id="wgL369HM5ECdO7fE-a8m-222" value="&amp;lt;p_cte&amp;gt;" style="rounded=1;whiteSpace=wrap;html=1;container=0;movable=1;resizable=1;rotatable=1;deletable=1;editable=1;locked=0;connectable=1;" parent="kk3THTOy6dKuFwCp_Lxx-43" vertex="1">
          <mxGeometry x="82.8" y="83.63636363636361" width="82.28571428571428" height="28.749999999999993" as="geometry" />
        </mxCell>
        <mxCell id="wgL369HM5ECdO7fE-a8m-224" style="edgeStyle=orthogonalEdgeStyle;rounded=0;orthogonalLoop=1;jettySize=auto;html=1;entryX=0;entryY=0.5;entryDx=0;entryDy=0;movable=1;resizable=1;rotatable=1;deletable=1;editable=1;locked=0;connectable=1;" parent="kk3THTOy6dKuFwCp_Lxx-43" source="wgL369HM5ECdO7fE-a8m-220" target="wgL369HM5ECdO7fE-a8m-222" edge="1">
          <mxGeometry relative="1" as="geometry" />
        </mxCell>
        <mxCell id="wgL369HM5ECdO7fE-a8m-251" style="edgeStyle=orthogonalEdgeStyle;rounded=0;orthogonalLoop=1;jettySize=auto;html=1;movable=1;resizable=1;rotatable=1;deletable=1;editable=1;locked=0;connectable=1;" parent="kk3THTOy6dKuFwCp_Lxx-43" edge="1">
          <mxGeometry relative="1" as="geometry">
            <mxPoint x="237.08571428571426" y="57.499999999999986" as="targetPoint" />
            <mxPoint x="154.79999999999998" y="57.499999999999986" as="sourcePoint" />
          </mxGeometry>
        </mxCell>
        <mxCell id="wgL369HM5ECdO7fE-a8m-249" value="&amp;lt;p_expression&amp;gt;" style="rounded=1;whiteSpace=wrap;html=1;container=0;movable=1;resizable=1;rotatable=1;deletable=1;editable=1;locked=0;connectable=1;" parent="kk3THTOy6dKuFwCp_Lxx-43" vertex="1">
          <mxGeometry x="82.8" y="170.53454545454554" width="82.28571428571428" height="28.749999999999993" as="geometry" />
        </mxCell>
        <mxCell id="wgL369HM5ECdO7fE-a8m-257" style="edgeStyle=orthogonalEdgeStyle;rounded=0;orthogonalLoop=1;jettySize=auto;html=1;entryX=0;entryY=0.5;entryDx=0;entryDy=0;endArrow=none;endFill=0;movable=1;resizable=1;rotatable=1;deletable=1;editable=1;locked=0;connectable=1;" parent="kk3THTOy6dKuFwCp_Lxx-43" source="wgL369HM5ECdO7fE-a8m-200" target="wgL369HM5ECdO7fE-a8m-249" edge="1">
          <mxGeometry relative="1" as="geometry" />
        </mxCell>
        <mxCell id="wgL369HM5ECdO7fE-a8m-264" style="edgeStyle=orthogonalEdgeStyle;rounded=0;orthogonalLoop=1;jettySize=auto;html=1;movable=1;resizable=1;rotatable=1;deletable=1;editable=1;locked=0;connectable=1;" parent="kk3THTOy6dKuFwCp_Lxx-43" source="wgL369HM5ECdO7fE-a8m-255" edge="1">
          <mxGeometry relative="1" as="geometry">
            <mxPoint x="193.37142857142857" y="94.09090909090907" as="targetPoint" />
          </mxGeometry>
        </mxCell>
        <mxCell id="wgL369HM5ECdO7fE-a8m-255" value=")" style="ellipse;whiteSpace=wrap;html=1;container=0;movable=1;resizable=1;rotatable=1;deletable=1;editable=1;locked=0;connectable=1;" parent="kk3THTOy6dKuFwCp_Lxx-43" vertex="1">
          <mxGeometry x="174.85714285714283" y="168.57954545454544" width="36" height="32.67045454545454" as="geometry" />
        </mxCell>
        <mxCell id="wgL369HM5ECdO7fE-a8m-261" style="edgeStyle=orthogonalEdgeStyle;rounded=0;orthogonalLoop=1;jettySize=auto;html=1;entryX=0;entryY=0.5;entryDx=0;entryDy=0;endArrow=none;endFill=0;movable=1;resizable=1;rotatable=1;deletable=1;editable=1;locked=0;connectable=1;" parent="kk3THTOy6dKuFwCp_Lxx-43" source="wgL369HM5ECdO7fE-a8m-249" target="wgL369HM5ECdO7fE-a8m-255" edge="1">
          <mxGeometry relative="1" as="geometry" />
        </mxCell>
        <mxCell id="kk3THTOy6dKuFwCp_Lxx-6" style="edgeStyle=orthogonalEdgeStyle;rounded=0;orthogonalLoop=1;jettySize=auto;html=1;movable=1;resizable=1;rotatable=1;deletable=1;editable=1;locked=0;connectable=1;" parent="kk3THTOy6dKuFwCp_Lxx-43" source="kk3THTOy6dKuFwCp_Lxx-2" edge="1">
          <mxGeometry relative="1" as="geometry">
            <mxPoint x="195.42857142857142" y="139.18136363636373" as="targetPoint" />
          </mxGeometry>
        </mxCell>
        <mxCell id="kk3THTOy6dKuFwCp_Lxx-2" value="&amp;lt;p_invocation&amp;gt;" style="rounded=1;whiteSpace=wrap;html=1;container=0;movable=1;resizable=1;rotatable=1;deletable=1;editable=1;locked=0;connectable=1;" parent="kk3THTOy6dKuFwCp_Lxx-43" vertex="1">
          <mxGeometry x="82.8" y="124.80636363636373" width="82.28571428571428" height="28.749999999999993" as="geometry" />
        </mxCell>
        <mxCell id="kk3THTOy6dKuFwCp_Lxx-5" style="edgeStyle=orthogonalEdgeStyle;rounded=0;orthogonalLoop=1;jettySize=auto;html=1;entryX=0;entryY=0.5;entryDx=0;entryDy=0;movable=1;resizable=1;rotatable=1;deletable=1;editable=1;locked=0;connectable=1;" parent="kk3THTOy6dKuFwCp_Lxx-43" source="wgL369HM5ECdO7fE-a8m-220" target="kk3THTOy6dKuFwCp_Lxx-2" edge="1">
          <mxGeometry relative="1" as="geometry" />
        </mxCell>
        <mxCell id="kk3THTOy6dKuFwCp_Lxx-3" value="&amp;lt;p_variable&amp;gt;" style="rounded=1;whiteSpace=wrap;html=1;container=0;movable=1;resizable=1;rotatable=1;deletable=1;editable=1;locked=0;connectable=1;" parent="kk3THTOy6dKuFwCp_Lxx-43" vertex="1">
          <mxGeometry x="82.8" y="41.818181818181806" width="82.28571428571428" height="28.749999999999993" as="geometry" />
        </mxCell>
        <mxCell id="kk3THTOy6dKuFwCp_Lxx-4" style="edgeStyle=orthogonalEdgeStyle;rounded=0;orthogonalLoop=1;jettySize=auto;html=1;entryX=0;entryY=0.5;entryDx=0;entryDy=0;movable=1;resizable=1;rotatable=1;deletable=1;editable=1;locked=0;connectable=1;" parent="kk3THTOy6dKuFwCp_Lxx-43" source="wgL369HM5ECdO7fE-a8m-220" target="kk3THTOy6dKuFwCp_Lxx-3" edge="1">
          <mxGeometry relative="1" as="geometry" />
        </mxCell>
        <mxCell id="kk3THTOy6dKuFwCp_Lxx-44" value="" style="group;movable=1;resizable=1;rotatable=1;deletable=1;editable=1;locked=0;connectable=1;" parent="1" connectable="0" vertex="1">
          <mxGeometry x="-2380" y="951.88" width="298.75" height="186.25" as="geometry" />
        </mxCell>
        <mxCell id="wgL369HM5ECdO7fE-a8m-307" value="" style="rounded=0;whiteSpace=wrap;html=1;fillColor=#dae8fc;strokeColor=#6c8ebf;movable=1;resizable=1;rotatable=1;deletable=1;editable=1;locked=0;connectable=1;" parent="kk3THTOy6dKuFwCp_Lxx-44" vertex="1">
          <mxGeometry y="-10" width="298.75" height="196.25" as="geometry" />
        </mxCell>
        <mxCell id="wgL369HM5ECdO7fE-a8m-285" style="edgeStyle=orthogonalEdgeStyle;rounded=0;orthogonalLoop=1;jettySize=auto;html=1;movable=1;resizable=1;rotatable=1;deletable=1;editable=1;locked=0;connectable=1;" parent="kk3THTOy6dKuFwCp_Lxx-44" source="wgL369HM5ECdO7fE-a8m-287" edge="1">
          <mxGeometry relative="1" as="geometry">
            <mxPoint x="288.7600000000002" y="81.25" as="targetPoint" />
          </mxGeometry>
        </mxCell>
        <mxCell id="wgL369HM5ECdO7fE-a8m-286" style="edgeStyle=orthogonalEdgeStyle;rounded=0;orthogonalLoop=1;jettySize=auto;html=1;movable=1;resizable=1;rotatable=1;deletable=1;editable=1;locked=0;connectable=1;" parent="kk3THTOy6dKuFwCp_Lxx-44" source="wgL369HM5ECdO7fE-a8m-287" edge="1">
          <mxGeometry relative="1" as="geometry">
            <mxPoint x="188.75" y="136.25" as="targetPoint" />
            <Array as="points">
              <mxPoint x="228.75" y="81.25" />
              <mxPoint x="228.75" y="136.25" />
            </Array>
          </mxGeometry>
        </mxCell>
        <mxCell id="wgL369HM5ECdO7fE-a8m-287" value="&amp;lt;p_factor&amp;gt;" style="rounded=1;whiteSpace=wrap;html=1;movable=1;resizable=1;rotatable=1;deletable=1;editable=1;locked=0;connectable=1;" parent="kk3THTOy6dKuFwCp_Lxx-44" vertex="1">
          <mxGeometry x="88.75" y="67.5" width="105" height="27.5" as="geometry" />
        </mxCell>
        <mxCell id="wgL369HM5ECdO7fE-a8m-283" style="edgeStyle=orthogonalEdgeStyle;rounded=0;orthogonalLoop=1;jettySize=auto;html=1;entryX=0;entryY=0.5;entryDx=0;entryDy=0;movable=1;resizable=1;rotatable=1;deletable=1;editable=1;locked=0;connectable=1;" parent="kk3THTOy6dKuFwCp_Lxx-44" target="wgL369HM5ECdO7fE-a8m-287" edge="1">
          <mxGeometry relative="1" as="geometry">
            <Array as="points">
              <mxPoint x="48.75" y="81.25" />
            </Array>
            <mxPoint x="48.80000000000018" y="43.75" as="sourcePoint" />
          </mxGeometry>
        </mxCell>
        <mxCell id="wgL369HM5ECdO7fE-a8m-289" value="/" style="ellipse;whiteSpace=wrap;html=1;movable=1;resizable=1;rotatable=1;deletable=1;editable=1;locked=0;connectable=1;" parent="kk3THTOy6dKuFwCp_Lxx-44" vertex="1">
          <mxGeometry x="113.75" y="145" width="60" height="30" as="geometry" />
        </mxCell>
        <mxCell id="wgL369HM5ECdO7fE-a8m-290" style="edgeStyle=orthogonalEdgeStyle;rounded=0;orthogonalLoop=1;jettySize=auto;html=1;entryX=0;entryY=0.5;entryDx=0;entryDy=0;endArrow=none;endFill=0;movable=1;resizable=1;rotatable=1;deletable=1;editable=1;locked=0;connectable=1;" parent="kk3THTOy6dKuFwCp_Lxx-44" source="wgL369HM5ECdO7fE-a8m-292" target="wgL369HM5ECdO7fE-a8m-289" edge="1">
          <mxGeometry relative="1" as="geometry">
            <Array as="points">
              <mxPoint x="88.75" y="121.25" />
              <mxPoint x="88.75" y="160.25" />
            </Array>
          </mxGeometry>
        </mxCell>
        <mxCell id="wgL369HM5ECdO7fE-a8m-291" style="edgeStyle=orthogonalEdgeStyle;rounded=0;orthogonalLoop=1;jettySize=auto;html=1;movable=1;resizable=1;rotatable=1;deletable=1;editable=1;locked=0;connectable=1;" parent="kk3THTOy6dKuFwCp_Lxx-44" source="wgL369HM5ECdO7fE-a8m-292" edge="1">
          <mxGeometry relative="1" as="geometry">
            <mxPoint x="58.75" y="76.25" as="targetPoint" />
          </mxGeometry>
        </mxCell>
        <mxCell id="wgL369HM5ECdO7fE-a8m-292" value="*" style="ellipse;whiteSpace=wrap;html=1;movable=1;resizable=1;rotatable=1;deletable=1;editable=1;locked=0;connectable=1;" parent="kk3THTOy6dKuFwCp_Lxx-44" vertex="1">
          <mxGeometry x="111.25" y="106.25" width="60" height="30" as="geometry" />
        </mxCell>
        <mxCell id="wgL369HM5ECdO7fE-a8m-288" style="edgeStyle=orthogonalEdgeStyle;rounded=0;orthogonalLoop=1;jettySize=auto;html=1;entryX=1;entryY=0.5;entryDx=0;entryDy=0;endArrow=none;endFill=0;movable=1;resizable=1;rotatable=1;deletable=1;editable=1;locked=0;connectable=1;" parent="kk3THTOy6dKuFwCp_Lxx-44" source="wgL369HM5ECdO7fE-a8m-289" target="wgL369HM5ECdO7fE-a8m-292" edge="1">
          <mxGeometry relative="1" as="geometry">
            <Array as="points">
              <mxPoint x="191.75" y="160.25" />
              <mxPoint x="191.75" y="121.25" />
            </Array>
          </mxGeometry>
        </mxCell>
        <mxCell id="q9BfA_OA_zZqtC3AqU1K-2" value="&amp;lt;p_term&amp;gt;" style="text;html=1;align=center;verticalAlign=middle;resizable=1;points=[];autosize=1;strokeColor=none;fillColor=none;movable=1;rotatable=1;deletable=1;editable=1;locked=0;connectable=1;container=0;" parent="kk3THTOy6dKuFwCp_Lxx-44" vertex="1">
          <mxGeometry x="18.75" y="20" width="70" height="30" as="geometry" />
        </mxCell>
        <mxCell id="kk3THTOy6dKuFwCp_Lxx-45" value="" style="group" parent="1" connectable="0" vertex="1">
          <mxGeometry x="-2081.25" y="520.0000000000001" width="305" height="186.25" as="geometry" />
        </mxCell>
        <mxCell id="wgL369HM5ECdO7fE-a8m-293" value="" style="rounded=0;whiteSpace=wrap;html=1;fillColor=#dae8fc;strokeColor=#6c8ebf;" parent="kk3THTOy6dKuFwCp_Lxx-45" vertex="1">
          <mxGeometry x="10" width="295" height="186.25" as="geometry" />
        </mxCell>
        <mxCell id="wgL369HM5ECdO7fE-a8m-166" style="edgeStyle=orthogonalEdgeStyle;rounded=0;orthogonalLoop=1;jettySize=auto;html=1;" parent="kk3THTOy6dKuFwCp_Lxx-45" source="wgL369HM5ECdO7fE-a8m-140" edge="1">
          <mxGeometry relative="1" as="geometry">
            <mxPoint x="295.0100000000002" y="81.25" as="targetPoint" />
          </mxGeometry>
        </mxCell>
        <mxCell id="wgL369HM5ECdO7fE-a8m-180" style="edgeStyle=orthogonalEdgeStyle;rounded=0;orthogonalLoop=1;jettySize=auto;html=1;" parent="kk3THTOy6dKuFwCp_Lxx-45" source="wgL369HM5ECdO7fE-a8m-140" edge="1">
          <mxGeometry relative="1" as="geometry">
            <mxPoint x="195" y="136.25" as="targetPoint" />
            <Array as="points">
              <mxPoint x="235" y="81.25" />
              <mxPoint x="235" y="136.25" />
            </Array>
          </mxGeometry>
        </mxCell>
        <mxCell id="wgL369HM5ECdO7fE-a8m-140" value="&amp;lt;p_term&amp;gt;" style="rounded=1;whiteSpace=wrap;html=1;" parent="kk3THTOy6dKuFwCp_Lxx-45" vertex="1">
          <mxGeometry x="95" y="67.5" width="105" height="27.5" as="geometry" />
        </mxCell>
        <mxCell id="wgL369HM5ECdO7fE-a8m-144" style="edgeStyle=orthogonalEdgeStyle;rounded=0;orthogonalLoop=1;jettySize=auto;html=1;entryX=0;entryY=0.5;entryDx=0;entryDy=0;" parent="kk3THTOy6dKuFwCp_Lxx-45" target="wgL369HM5ECdO7fE-a8m-140" edge="1">
          <mxGeometry relative="1" as="geometry">
            <Array as="points">
              <mxPoint x="55" y="81.25" />
            </Array>
            <mxPoint x="55" y="43.749999999999886" as="sourcePoint" />
          </mxGeometry>
        </mxCell>
        <mxCell id="wgL369HM5ECdO7fE-a8m-143" value="||" style="ellipse;whiteSpace=wrap;html=1;" parent="kk3THTOy6dKuFwCp_Lxx-45" vertex="1">
          <mxGeometry x="120" y="145" width="60" height="30" as="geometry" />
        </mxCell>
        <mxCell id="wgL369HM5ECdO7fE-a8m-178" style="edgeStyle=orthogonalEdgeStyle;rounded=0;orthogonalLoop=1;jettySize=auto;html=1;entryX=0;entryY=0.5;entryDx=0;entryDy=0;endArrow=none;endFill=0;" parent="kk3THTOy6dKuFwCp_Lxx-45" source="wgL369HM5ECdO7fE-a8m-141" target="wgL369HM5ECdO7fE-a8m-143" edge="1">
          <mxGeometry relative="1" as="geometry">
            <Array as="points">
              <mxPoint x="95" y="121.25" />
              <mxPoint x="95" y="160.25" />
            </Array>
          </mxGeometry>
        </mxCell>
        <mxCell id="wgL369HM5ECdO7fE-a8m-196" style="edgeStyle=orthogonalEdgeStyle;rounded=0;orthogonalLoop=1;jettySize=auto;html=1;" parent="kk3THTOy6dKuFwCp_Lxx-45" source="wgL369HM5ECdO7fE-a8m-141" edge="1">
          <mxGeometry relative="1" as="geometry">
            <mxPoint x="65" y="76.25" as="targetPoint" />
          </mxGeometry>
        </mxCell>
        <mxCell id="wgL369HM5ECdO7fE-a8m-141" value="&amp;amp;&amp;amp;" style="ellipse;whiteSpace=wrap;html=1;" parent="kk3THTOy6dKuFwCp_Lxx-45" vertex="1">
          <mxGeometry x="117.5" y="106.25" width="60" height="30" as="geometry" />
        </mxCell>
        <mxCell id="wgL369HM5ECdO7fE-a8m-176" style="edgeStyle=orthogonalEdgeStyle;rounded=0;orthogonalLoop=1;jettySize=auto;html=1;entryX=1;entryY=0.5;entryDx=0;entryDy=0;endArrow=none;endFill=0;" parent="kk3THTOy6dKuFwCp_Lxx-45" source="wgL369HM5ECdO7fE-a8m-143" target="wgL369HM5ECdO7fE-a8m-141" edge="1">
          <mxGeometry relative="1" as="geometry">
            <Array as="points">
              <mxPoint x="198" y="160.25" />
              <mxPoint x="198" y="121.25" />
            </Array>
          </mxGeometry>
        </mxCell>
        <mxCell id="q9BfA_OA_zZqtC3AqU1K-4" value="&amp;lt;p_t_expression&amp;gt;" style="text;html=1;align=center;verticalAlign=middle;resizable=1;points=[];autosize=1;strokeColor=none;fillColor=none;movable=1;rotatable=1;deletable=1;editable=1;locked=0;connectable=1;container=0;" parent="kk3THTOy6dKuFwCp_Lxx-45" vertex="1">
          <mxGeometry x="5" y="19.999999999999886" width="120" height="30" as="geometry" />
        </mxCell>
        <mxCell id="kk3THTOy6dKuFwCp_Lxx-46" value="" style="group" parent="1" connectable="0" vertex="1">
          <mxGeometry x="-2390" y="520.0000000000001" width="305" height="186.25" as="geometry" />
        </mxCell>
        <mxCell id="kk3THTOy6dKuFwCp_Lxx-47" value="" style="rounded=0;whiteSpace=wrap;html=1;fillColor=#dae8fc;strokeColor=#6c8ebf;" parent="kk3THTOy6dKuFwCp_Lxx-46" vertex="1">
          <mxGeometry x="10" width="295" height="186.25" as="geometry" />
        </mxCell>
        <mxCell id="kk3THTOy6dKuFwCp_Lxx-48" style="edgeStyle=orthogonalEdgeStyle;rounded=0;orthogonalLoop=1;jettySize=auto;html=1;" parent="kk3THTOy6dKuFwCp_Lxx-46" source="kk3THTOy6dKuFwCp_Lxx-50" edge="1">
          <mxGeometry relative="1" as="geometry">
            <mxPoint x="295.0100000000002" y="81.25" as="targetPoint" />
          </mxGeometry>
        </mxCell>
        <mxCell id="kk3THTOy6dKuFwCp_Lxx-49" style="edgeStyle=orthogonalEdgeStyle;rounded=0;orthogonalLoop=1;jettySize=auto;html=1;" parent="kk3THTOy6dKuFwCp_Lxx-46" source="kk3THTOy6dKuFwCp_Lxx-50" target="kk3THTOy6dKuFwCp_Lxx-55" edge="1">
          <mxGeometry relative="1" as="geometry">
            <mxPoint x="195" y="136.25" as="targetPoint" />
            <Array as="points">
              <mxPoint x="235" y="81" />
              <mxPoint x="235" y="136" />
            </Array>
          </mxGeometry>
        </mxCell>
        <mxCell id="kk3THTOy6dKuFwCp_Lxx-50" value="&amp;lt;p_t_term&amp;gt;" style="rounded=1;whiteSpace=wrap;html=1;" parent="kk3THTOy6dKuFwCp_Lxx-46" vertex="1">
          <mxGeometry x="95" y="67.5" width="105" height="27.5" as="geometry" />
        </mxCell>
        <mxCell id="kk3THTOy6dKuFwCp_Lxx-51" style="edgeStyle=orthogonalEdgeStyle;rounded=0;orthogonalLoop=1;jettySize=auto;html=1;entryX=0;entryY=0.5;entryDx=0;entryDy=0;" parent="kk3THTOy6dKuFwCp_Lxx-46" target="kk3THTOy6dKuFwCp_Lxx-50" edge="1">
          <mxGeometry relative="1" as="geometry">
            <Array as="points">
              <mxPoint x="55" y="81.25" />
            </Array>
            <mxPoint x="55" y="43.749999999999886" as="sourcePoint" />
          </mxGeometry>
        </mxCell>
        <mxCell id="kk3THTOy6dKuFwCp_Lxx-59" style="edgeStyle=orthogonalEdgeStyle;rounded=0;orthogonalLoop=1;jettySize=auto;html=1;" parent="kk3THTOy6dKuFwCp_Lxx-46" source="kk3THTOy6dKuFwCp_Lxx-55" edge="1">
          <mxGeometry relative="1" as="geometry">
            <mxPoint x="70" y="79.99999999999989" as="targetPoint" />
          </mxGeometry>
        </mxCell>
        <mxCell id="kk3THTOy6dKuFwCp_Lxx-55" value="=" style="ellipse;whiteSpace=wrap;html=1;" parent="kk3THTOy6dKuFwCp_Lxx-46" vertex="1">
          <mxGeometry x="117.5" y="120" width="60" height="30" as="geometry" />
        </mxCell>
        <mxCell id="kk3THTOy6dKuFwCp_Lxx-57" value="&amp;lt;p_expression&amp;gt;" style="text;html=1;align=center;verticalAlign=middle;resizable=1;points=[];autosize=1;strokeColor=none;fillColor=none;movable=1;rotatable=1;deletable=1;editable=1;locked=0;connectable=1;container=0;" parent="kk3THTOy6dKuFwCp_Lxx-46" vertex="1">
          <mxGeometry x="10" y="19.999999999999886" width="110" height="30" as="geometry" />
        </mxCell>
        <mxCell id="q9BfA_OA_zZqtC3AqU1K-49" value="" style="rounded=0;whiteSpace=wrap;html=1;fillColor=#dae8fc;strokeColor=#6c8ebf;container=0;" parent="1" vertex="1">
          <mxGeometry x="-2380" y="120" width="550" height="100" as="geometry" />
        </mxCell>
        <mxCell id="q9BfA_OA_zZqtC3AqU1K-34" value="&amp;lt;p_var_declaration&amp;gt;" style="text;html=1;align=center;verticalAlign=middle;resizable=0;points=[];autosize=1;strokeColor=none;fillColor=none;container=0;" parent="1" vertex="1">
          <mxGeometry x="-2380" y="128.75" width="130" height="30" as="geometry" />
        </mxCell>
        <mxCell id="q9BfA_OA_zZqtC3AqU1K-37" style="edgeStyle=orthogonalEdgeStyle;rounded=0;orthogonalLoop=1;jettySize=auto;html=1;" parent="1" target="q9BfA_OA_zZqtC3AqU1K-36" edge="1">
          <mxGeometry relative="1" as="geometry">
            <mxPoint x="-2212.5" y="182.5" as="sourcePoint" />
          </mxGeometry>
        </mxCell>
        <mxCell id="q9BfA_OA_zZqtC3AqU1K-35" value="VARIABLE" style="ellipse;whiteSpace=wrap;html=1;container=0;" parent="1" vertex="1">
          <mxGeometry x="-2282.5" y="167.5" width="70" height="30" as="geometry" />
        </mxCell>
        <mxCell id="q9BfA_OA_zZqtC3AqU1K-48" style="edgeStyle=orthogonalEdgeStyle;rounded=0;orthogonalLoop=1;jettySize=auto;html=1;entryX=0;entryY=0.5;entryDx=0;entryDy=0;" parent="1" source="q9BfA_OA_zZqtC3AqU1K-34" target="q9BfA_OA_zZqtC3AqU1K-35" edge="1">
          <mxGeometry relative="1" as="geometry" />
        </mxCell>
        <mxCell id="q9BfA_OA_zZqtC3AqU1K-36" value="&amp;lt;p_simple_type&amp;gt;" style="rounded=1;whiteSpace=wrap;html=1;container=0;" parent="1" vertex="1">
          <mxGeometry x="-2190" y="168.75" width="105" height="27.5" as="geometry" />
        </mxCell>
        <mxCell id="q9BfA_OA_zZqtC3AqU1K-38" value="&amp;lt;p_variable&amp;gt;" style="rounded=1;whiteSpace=wrap;html=1;container=0;" parent="1" vertex="1">
          <mxGeometry x="-2057.5" y="167.5" width="105" height="27.5" as="geometry" />
        </mxCell>
        <mxCell id="q9BfA_OA_zZqtC3AqU1K-39" style="edgeStyle=orthogonalEdgeStyle;rounded=0;orthogonalLoop=1;jettySize=auto;html=1;entryX=0;entryY=0.5;entryDx=0;entryDy=0;" parent="1" source="q9BfA_OA_zZqtC3AqU1K-36" target="q9BfA_OA_zZqtC3AqU1K-38" edge="1">
          <mxGeometry relative="1" as="geometry" />
        </mxCell>
        <mxCell id="q9BfA_OA_zZqtC3AqU1K-42" style="edgeStyle=orthogonalEdgeStyle;rounded=0;orthogonalLoop=1;jettySize=auto;html=1;" parent="1" source="q9BfA_OA_zZqtC3AqU1K-40" edge="1">
          <mxGeometry relative="1" as="geometry">
            <mxPoint x="-2070" y="177.5" as="targetPoint" />
          </mxGeometry>
        </mxCell>
        <mxCell id="q9BfA_OA_zZqtC3AqU1K-40" value="," style="ellipse;whiteSpace=wrap;html=1;container=0;" parent="1" vertex="1">
          <mxGeometry x="-2021.25" y="127.5" width="40" height="30" as="geometry" />
        </mxCell>
        <mxCell id="q9BfA_OA_zZqtC3AqU1K-41" style="edgeStyle=orthogonalEdgeStyle;rounded=0;orthogonalLoop=1;jettySize=auto;html=1;entryX=1;entryY=0.5;entryDx=0;entryDy=0;" parent="1" source="q9BfA_OA_zZqtC3AqU1K-38" target="q9BfA_OA_zZqtC3AqU1K-40" edge="1">
          <mxGeometry relative="1" as="geometry">
            <Array as="points">
              <mxPoint x="-1940" y="181.5" />
              <mxPoint x="-1940" y="142.5" />
            </Array>
          </mxGeometry>
        </mxCell>
        <mxCell id="q9BfA_OA_zZqtC3AqU1K-183" style="edgeStyle=orthogonalEdgeStyle;rounded=0;orthogonalLoop=1;jettySize=auto;html=1;" parent="1" source="q9BfA_OA_zZqtC3AqU1K-45" edge="1">
          <mxGeometry relative="1" as="geometry">
            <mxPoint x="-1840" y="181.25" as="targetPoint" />
          </mxGeometry>
        </mxCell>
        <mxCell id="50ml9UzkDoaz7rRn15qy-2" style="edgeStyle=orthogonalEdgeStyle;rounded=0;orthogonalLoop=1;jettySize=auto;html=1;" edge="1" parent="1" source="q9BfA_OA_zZqtC3AqU1K-45">
          <mxGeometry relative="1" as="geometry">
            <mxPoint x="-2310" y="181" as="targetPoint" />
            <Array as="points">
              <mxPoint x="-1857" y="181" />
              <mxPoint x="-1857" y="200" />
            </Array>
          </mxGeometry>
        </mxCell>
        <mxCell id="q9BfA_OA_zZqtC3AqU1K-45" value=";" style="ellipse;whiteSpace=wrap;html=1;container=0;" parent="1" vertex="1">
          <mxGeometry x="-1917.5" y="166.25" width="40" height="30" as="geometry" />
        </mxCell>
        <mxCell id="q9BfA_OA_zZqtC3AqU1K-46" style="edgeStyle=orthogonalEdgeStyle;rounded=0;orthogonalLoop=1;jettySize=auto;html=1;" parent="1" source="q9BfA_OA_zZqtC3AqU1K-38" target="q9BfA_OA_zZqtC3AqU1K-45" edge="1">
          <mxGeometry relative="1" as="geometry" />
        </mxCell>
        <mxCell id="q9BfA_OA_zZqtC3AqU1K-27" value="" style="rounded=0;whiteSpace=wrap;html=1;fillColor=#dae8fc;strokeColor=#6c8ebf;container=0;" parent="1" vertex="1">
          <mxGeometry x="-2383.62" y="10" width="1283.62" height="100" as="geometry" />
        </mxCell>
        <mxCell id="HmtyADd9bvggswju7NMW-12" value="PROGRAM" style="ellipse;whiteSpace=wrap;html=1;container=0;" parent="1" vertex="1">
          <mxGeometry x="-2302.5" y="51.25" width="80" height="30" as="geometry" />
        </mxCell>
        <mxCell id="HmtyADd9bvggswju7NMW-17" value="&amp;lt;p_body&amp;gt;" style="rounded=1;whiteSpace=wrap;html=1;container=0;" parent="1" vertex="1">
          <mxGeometry x="-1440" y="52.5" width="105" height="27.5" as="geometry" />
        </mxCell>
        <mxCell id="q9BfA_OA_zZqtC3AqU1K-5" value="ID" style="ellipse;whiteSpace=wrap;html=1;container=0;" parent="1" vertex="1">
          <mxGeometry x="-2201.25" y="51.25" width="40" height="30" as="geometry" />
        </mxCell>
        <mxCell id="q9BfA_OA_zZqtC3AqU1K-15" style="edgeStyle=orthogonalEdgeStyle;rounded=0;orthogonalLoop=1;jettySize=auto;html=1;entryX=0;entryY=0.5;entryDx=0;entryDy=0;" parent="1" source="HmtyADd9bvggswju7NMW-12" target="q9BfA_OA_zZqtC3AqU1K-5" edge="1">
          <mxGeometry relative="1" as="geometry" />
        </mxCell>
        <mxCell id="q9BfA_OA_zZqtC3AqU1K-23" style="edgeStyle=orthogonalEdgeStyle;rounded=0;orthogonalLoop=1;jettySize=auto;html=1;" parent="1" source="q9BfA_OA_zZqtC3AqU1K-6" edge="1">
          <mxGeometry relative="1" as="geometry">
            <mxPoint x="-1953.75" y="66" as="targetPoint" />
            <Array as="points">
              <mxPoint x="-2083.75" y="66" />
              <mxPoint x="-2083.75" y="40" />
              <mxPoint x="-1953.75" y="40" />
            </Array>
          </mxGeometry>
        </mxCell>
        <mxCell id="q9BfA_OA_zZqtC3AqU1K-6" value=";" style="ellipse;whiteSpace=wrap;html=1;container=0;" parent="1" vertex="1">
          <mxGeometry x="-2133.75" y="51.25" width="40" height="30" as="geometry" />
        </mxCell>
        <mxCell id="q9BfA_OA_zZqtC3AqU1K-16" style="edgeStyle=orthogonalEdgeStyle;rounded=0;orthogonalLoop=1;jettySize=auto;html=1;entryX=0;entryY=0.5;entryDx=0;entryDy=0;" parent="1" source="q9BfA_OA_zZqtC3AqU1K-5" target="q9BfA_OA_zZqtC3AqU1K-6" edge="1">
          <mxGeometry relative="1" as="geometry" />
        </mxCell>
        <mxCell id="q9BfA_OA_zZqtC3AqU1K-9" value="&amp;lt;p_var_declaration&amp;gt;" style="rounded=1;whiteSpace=wrap;html=1;container=0;" parent="1" vertex="1">
          <mxGeometry x="-2068.75" y="52.5" width="105" height="27.5" as="geometry" />
        </mxCell>
        <mxCell id="q9BfA_OA_zZqtC3AqU1K-17" style="edgeStyle=orthogonalEdgeStyle;rounded=0;orthogonalLoop=1;jettySize=auto;html=1;" parent="1" source="q9BfA_OA_zZqtC3AqU1K-6" target="q9BfA_OA_zZqtC3AqU1K-9" edge="1">
          <mxGeometry relative="1" as="geometry" />
        </mxCell>
        <mxCell id="q9BfA_OA_zZqtC3AqU1K-25" style="edgeStyle=orthogonalEdgeStyle;rounded=0;orthogonalLoop=1;jettySize=auto;html=1;exitX=1;exitY=0.5;exitDx=0;exitDy=0;" parent="1" source="q9BfA_OA_zZqtC3AqU1K-13" edge="1">
          <mxGeometry relative="1" as="geometry">
            <mxPoint x="-1943.75" y="66" as="targetPoint" />
            <Array as="points">
              <mxPoint x="-1803.75" y="66" />
              <mxPoint x="-1803.75" y="100" />
              <mxPoint x="-1943.75" y="100" />
            </Array>
          </mxGeometry>
        </mxCell>
        <mxCell id="q9BfA_OA_zZqtC3AqU1K-13" value="&amp;lt;p_function&amp;gt;" style="rounded=1;whiteSpace=wrap;html=1;container=0;" parent="1" vertex="1">
          <mxGeometry x="-1933.75" y="52.5" width="105" height="27.5" as="geometry" />
        </mxCell>
        <mxCell id="q9BfA_OA_zZqtC3AqU1K-14" style="edgeStyle=orthogonalEdgeStyle;rounded=0;orthogonalLoop=1;jettySize=auto;html=1;entryX=0;entryY=0.5;entryDx=0;entryDy=0;" parent="1" source="q9BfA_OA_zZqtC3AqU1K-9" target="q9BfA_OA_zZqtC3AqU1K-13" edge="1">
          <mxGeometry relative="1" as="geometry" />
        </mxCell>
        <mxCell id="50ml9UzkDoaz7rRn15qy-13" style="edgeStyle=orthogonalEdgeStyle;rounded=0;orthogonalLoop=1;jettySize=auto;html=1;" edge="1" parent="1" source="q9BfA_OA_zZqtC3AqU1K-18" target="50ml9UzkDoaz7rRn15qy-11">
          <mxGeometry relative="1" as="geometry" />
        </mxCell>
        <mxCell id="q9BfA_OA_zZqtC3AqU1K-18" value="MAIN" style="ellipse;whiteSpace=wrap;html=1;container=0;" parent="1" vertex="1">
          <mxGeometry x="-1783.75" y="51.25" width="40" height="30" as="geometry" />
        </mxCell>
        <mxCell id="q9BfA_OA_zZqtC3AqU1K-20" style="edgeStyle=orthogonalEdgeStyle;rounded=0;orthogonalLoop=1;jettySize=auto;html=1;entryX=0;entryY=0.5;entryDx=0;entryDy=0;" parent="1" source="q9BfA_OA_zZqtC3AqU1K-13" target="q9BfA_OA_zZqtC3AqU1K-18" edge="1">
          <mxGeometry relative="1" as="geometry" />
        </mxCell>
        <mxCell id="q9BfA_OA_zZqtC3AqU1K-19" value="END" style="ellipse;whiteSpace=wrap;html=1;container=0;" parent="1" vertex="1">
          <mxGeometry x="-1300" y="51.25" width="40" height="30" as="geometry" />
        </mxCell>
        <mxCell id="q9BfA_OA_zZqtC3AqU1K-22" style="edgeStyle=orthogonalEdgeStyle;rounded=0;orthogonalLoop=1;jettySize=auto;html=1;entryX=0;entryY=0.5;entryDx=0;entryDy=0;" parent="1" source="HmtyADd9bvggswju7NMW-17" target="q9BfA_OA_zZqtC3AqU1K-19" edge="1">
          <mxGeometry relative="1" as="geometry" />
        </mxCell>
        <mxCell id="q9BfA_OA_zZqtC3AqU1K-24" style="edgeStyle=orthogonalEdgeStyle;rounded=0;orthogonalLoop=1;jettySize=auto;html=1;" parent="1" edge="1">
          <mxGeometry relative="1" as="geometry">
            <mxPoint x="-1811.25" y="66" as="targetPoint" />
            <mxPoint x="-1951.25" y="66" as="sourcePoint" />
            <Array as="points">
              <mxPoint x="-1940.75" y="66" />
              <mxPoint x="-1940.75" y="40" />
              <mxPoint x="-1810.75" y="40" />
            </Array>
          </mxGeometry>
        </mxCell>
        <mxCell id="HmtyADd9bvggswju7NMW-11" value="&amp;lt;p_program&lt;span style=&quot;background-color: initial;&quot;&gt;&amp;gt;&lt;/span&gt;" style="text;html=1;align=center;verticalAlign=middle;resizable=0;points=[];autosize=1;strokeColor=none;fillColor=none;container=0;" parent="1" vertex="1">
          <mxGeometry x="-2390" y="10" width="100" height="30" as="geometry" />
        </mxCell>
        <mxCell id="q9BfA_OA_zZqtC3AqU1K-31" style="edgeStyle=orthogonalEdgeStyle;rounded=0;orthogonalLoop=1;jettySize=auto;html=1;entryX=0;entryY=0.5;entryDx=0;entryDy=0;" parent="1" source="HmtyADd9bvggswju7NMW-11" target="HmtyADd9bvggswju7NMW-12" edge="1">
          <mxGeometry relative="1" as="geometry" />
        </mxCell>
        <mxCell id="50ml9UzkDoaz7rRn15qy-5" style="edgeStyle=orthogonalEdgeStyle;rounded=0;orthogonalLoop=1;jettySize=auto;html=1;entryX=0;entryY=0.5;entryDx=0;entryDy=0;" edge="1" parent="1" source="50ml9UzkDoaz7rRn15qy-3" target="HmtyADd9bvggswju7NMW-17">
          <mxGeometry relative="1" as="geometry" />
        </mxCell>
        <mxCell id="50ml9UzkDoaz7rRn15qy-3" value="&amp;lt;p_var_declaration&amp;gt;" style="rounded=1;whiteSpace=wrap;html=1;container=0;" vertex="1" parent="1">
          <mxGeometry x="-1575" y="52.5" width="105" height="27.5" as="geometry" />
        </mxCell>
        <mxCell id="q9BfA_OA_zZqtC3AqU1K-194" value="" style="rounded=0;whiteSpace=wrap;html=1;fillColor=#dae8fc;strokeColor=#6c8ebf;container=0;" parent="1" vertex="1">
          <mxGeometry x="-2380" y="400" width="950" height="110" as="geometry" />
        </mxCell>
        <mxCell id="q9BfA_OA_zZqtC3AqU1K-159" value="&amp;lt;p_function&amp;gt;" style="text;html=1;align=center;verticalAlign=middle;resizable=0;points=[];autosize=1;strokeColor=none;fillColor=none;container=0;" parent="1" vertex="1">
          <mxGeometry x="-2376.25" y="411.25" width="90" height="30" as="geometry" />
        </mxCell>
        <mxCell id="50ml9UzkDoaz7rRn15qy-22" style="edgeStyle=orthogonalEdgeStyle;rounded=0;orthogonalLoop=1;jettySize=auto;html=1;entryX=0;entryY=0.5;entryDx=0;entryDy=0;" edge="1" parent="1" source="q9BfA_OA_zZqtC3AqU1K-160" target="q9BfA_OA_zZqtC3AqU1K-161">
          <mxGeometry relative="1" as="geometry" />
        </mxCell>
        <mxCell id="50ml9UzkDoaz7rRn15qy-23" style="edgeStyle=orthogonalEdgeStyle;rounded=0;orthogonalLoop=1;jettySize=auto;html=1;" edge="1" parent="1" source="q9BfA_OA_zZqtC3AqU1K-160" target="q9BfA_OA_zZqtC3AqU1K-162">
          <mxGeometry relative="1" as="geometry" />
        </mxCell>
        <mxCell id="q9BfA_OA_zZqtC3AqU1K-160" value="FUNCTION" style="ellipse;whiteSpace=wrap;html=1;container=0;" parent="1" vertex="1">
          <mxGeometry x="-2310" y="451.25" width="86.25" height="30" as="geometry" />
        </mxCell>
        <mxCell id="q9BfA_OA_zZqtC3AqU1K-170" style="edgeStyle=orthogonalEdgeStyle;rounded=0;orthogonalLoop=1;jettySize=auto;html=1;entryX=0;entryY=0.5;entryDx=0;entryDy=0;" parent="1" source="q9BfA_OA_zZqtC3AqU1K-159" target="q9BfA_OA_zZqtC3AqU1K-160" edge="1">
          <mxGeometry relative="1" as="geometry" />
        </mxCell>
        <mxCell id="q9BfA_OA_zZqtC3AqU1K-161" value="&amp;lt;p_simple_type&amp;gt;" style="rounded=1;whiteSpace=wrap;html=1;container=0;" parent="1" vertex="1">
          <mxGeometry x="-2173.75" y="422.5" width="105" height="27.5" as="geometry" />
        </mxCell>
        <mxCell id="q9BfA_OA_zZqtC3AqU1K-162" value="VOID" style="ellipse;whiteSpace=wrap;html=1;container=0;" parent="1" vertex="1">
          <mxGeometry x="-2173.75" y="470" width="106.25" height="30" as="geometry" />
        </mxCell>
        <mxCell id="q9BfA_OA_zZqtC3AqU1K-163" value="ID" style="ellipse;whiteSpace=wrap;html=1;container=0;" parent="1" vertex="1">
          <mxGeometry x="-2036.25" y="448.75" width="40" height="30" as="geometry" />
        </mxCell>
        <mxCell id="q9BfA_OA_zZqtC3AqU1K-173" style="edgeStyle=orthogonalEdgeStyle;rounded=0;orthogonalLoop=1;jettySize=auto;html=1;entryX=0;entryY=0.5;entryDx=0;entryDy=0;" parent="1" source="q9BfA_OA_zZqtC3AqU1K-161" target="q9BfA_OA_zZqtC3AqU1K-163" edge="1">
          <mxGeometry relative="1" as="geometry" />
        </mxCell>
        <mxCell id="q9BfA_OA_zZqtC3AqU1K-174" style="edgeStyle=orthogonalEdgeStyle;rounded=0;orthogonalLoop=1;jettySize=auto;html=1;" parent="1" source="q9BfA_OA_zZqtC3AqU1K-162" target="q9BfA_OA_zZqtC3AqU1K-163" edge="1">
          <mxGeometry relative="1" as="geometry" />
        </mxCell>
        <mxCell id="q9BfA_OA_zZqtC3AqU1K-164" value="(" style="ellipse;whiteSpace=wrap;html=1;container=0;" parent="1" vertex="1">
          <mxGeometry x="-1973.75" y="448.75" width="40" height="30" as="geometry" />
        </mxCell>
        <mxCell id="q9BfA_OA_zZqtC3AqU1K-176" style="edgeStyle=orthogonalEdgeStyle;rounded=0;orthogonalLoop=1;jettySize=auto;html=1;entryX=0;entryY=0.5;entryDx=0;entryDy=0;" parent="1" source="q9BfA_OA_zZqtC3AqU1K-163" target="q9BfA_OA_zZqtC3AqU1K-164" edge="1">
          <mxGeometry relative="1" as="geometry" />
        </mxCell>
        <mxCell id="50ml9UzkDoaz7rRn15qy-26" style="edgeStyle=orthogonalEdgeStyle;rounded=0;orthogonalLoop=1;jettySize=auto;html=1;entryX=0;entryY=0.5;entryDx=0;entryDy=0;" edge="1" parent="1" source="q9BfA_OA_zZqtC3AqU1K-165" target="50ml9UzkDoaz7rRn15qy-24">
          <mxGeometry relative="1" as="geometry" />
        </mxCell>
        <mxCell id="q9BfA_OA_zZqtC3AqU1K-165" value=")" style="ellipse;whiteSpace=wrap;html=1;container=0;" parent="1" vertex="1">
          <mxGeometry x="-1758.25" y="448.75" width="40" height="30" as="geometry" />
        </mxCell>
        <mxCell id="q9BfA_OA_zZqtC3AqU1K-190" style="edgeStyle=orthogonalEdgeStyle;rounded=0;orthogonalLoop=1;jettySize=auto;html=1;entryX=0;entryY=0.5;entryDx=0;entryDy=0;" parent="1" source="q9BfA_OA_zZqtC3AqU1K-168" target="q9BfA_OA_zZqtC3AqU1K-165" edge="1">
          <mxGeometry relative="1" as="geometry" />
        </mxCell>
        <mxCell id="q9BfA_OA_zZqtC3AqU1K-168" value="&amp;lt;p_parameters&amp;gt;" style="rounded=1;whiteSpace=wrap;html=1;container=0;" parent="1" vertex="1">
          <mxGeometry x="-1908.75" y="450" width="125" height="27.5" as="geometry" />
        </mxCell>
        <mxCell id="q9BfA_OA_zZqtC3AqU1K-189" style="edgeStyle=orthogonalEdgeStyle;rounded=0;orthogonalLoop=1;jettySize=auto;html=1;entryX=0;entryY=0.5;entryDx=0;entryDy=0;" parent="1" source="q9BfA_OA_zZqtC3AqU1K-164" target="q9BfA_OA_zZqtC3AqU1K-168" edge="1">
          <mxGeometry relative="1" as="geometry" />
        </mxCell>
        <mxCell id="q9BfA_OA_zZqtC3AqU1K-191" value="&amp;lt;p_body&amp;gt;" style="rounded=1;whiteSpace=wrap;html=1;container=0;" parent="1" vertex="1">
          <mxGeometry x="-1562.5" y="450" width="105" height="27.5" as="geometry" />
        </mxCell>
        <mxCell id="50ml9UzkDoaz7rRn15qy-10" style="edgeStyle=orthogonalEdgeStyle;rounded=0;orthogonalLoop=1;jettySize=auto;html=1;" edge="1" parent="1">
          <mxGeometry relative="1" as="geometry">
            <mxPoint x="-1600" y="70" as="targetPoint" />
            <mxPoint x="-1445" y="66" as="sourcePoint" />
            <Array as="points">
              <mxPoint x="-1455" y="66" />
              <mxPoint x="-1455" y="40" />
              <mxPoint x="-1600" y="40" />
            </Array>
          </mxGeometry>
        </mxCell>
        <mxCell id="50ml9UzkDoaz7rRn15qy-14" style="edgeStyle=orthogonalEdgeStyle;rounded=0;orthogonalLoop=1;jettySize=auto;html=1;" edge="1" parent="1" source="50ml9UzkDoaz7rRn15qy-11" target="50ml9UzkDoaz7rRn15qy-12">
          <mxGeometry relative="1" as="geometry" />
        </mxCell>
        <mxCell id="50ml9UzkDoaz7rRn15qy-11" value="(" style="ellipse;whiteSpace=wrap;html=1;container=0;" vertex="1" parent="1">
          <mxGeometry x="-1725" y="51.25" width="40" height="30" as="geometry" />
        </mxCell>
        <mxCell id="50ml9UzkDoaz7rRn15qy-15" style="edgeStyle=orthogonalEdgeStyle;rounded=0;orthogonalLoop=1;jettySize=auto;html=1;" edge="1" parent="1" source="50ml9UzkDoaz7rRn15qy-12" target="50ml9UzkDoaz7rRn15qy-3">
          <mxGeometry relative="1" as="geometry" />
        </mxCell>
        <mxCell id="50ml9UzkDoaz7rRn15qy-12" value=")" style="ellipse;whiteSpace=wrap;html=1;container=0;" vertex="1" parent="1">
          <mxGeometry x="-1655" y="51.25" width="40" height="30" as="geometry" />
        </mxCell>
        <mxCell id="50ml9UzkDoaz7rRn15qy-21" value="" style="group" vertex="1" connectable="0" parent="1">
          <mxGeometry x="-1700" y="229.99571428571429" width="290" height="155.3542857142857" as="geometry" />
        </mxCell>
        <mxCell id="q9BfA_OA_zZqtC3AqU1K-195" value="" style="rounded=0;whiteSpace=wrap;html=1;fillColor=#dae8fc;strokeColor=#6c8ebf;container=0;" parent="50ml9UzkDoaz7rRn15qy-21" vertex="1">
          <mxGeometry y="0.004285714285686026" width="290" height="155.35" as="geometry" />
        </mxCell>
        <mxCell id="cP15I9SIxFx9GSkLht3O-16" style="edgeStyle=orthogonalEdgeStyle;rounded=0;orthogonalLoop=1;jettySize=auto;html=1;" parent="50ml9UzkDoaz7rRn15qy-21" source="q9BfA_OA_zZqtC3AqU1K-177" edge="1">
          <mxGeometry relative="1" as="geometry">
            <mxPoint x="290" y="52.71428571428572" as="targetPoint" />
            <Array as="points">
              <mxPoint x="55" y="52.71428571428572" />
              <mxPoint x="200" y="52.71428571428572" />
            </Array>
          </mxGeometry>
        </mxCell>
        <mxCell id="q9BfA_OA_zZqtC3AqU1K-177" value="&amp;lt;p_parameters&amp;gt;" style="text;html=1;align=center;verticalAlign=middle;resizable=0;points=[];autosize=1;strokeColor=none;fillColor=none;container=0;" parent="50ml9UzkDoaz7rRn15qy-21" vertex="1">
          <mxGeometry width="110" height="30" as="geometry" />
        </mxCell>
        <mxCell id="q9BfA_OA_zZqtC3AqU1K-178" value="&amp;lt;p_simple_type&amp;gt;" style="rounded=1;whiteSpace=wrap;html=1;container=0;" parent="50ml9UzkDoaz7rRn15qy-21" vertex="1">
          <mxGeometry x="80" y="62.68285714285719" width="105" height="39.285714285714285" as="geometry" />
        </mxCell>
        <mxCell id="cP15I9SIxFx9GSkLht3O-17" style="edgeStyle=orthogonalEdgeStyle;rounded=0;orthogonalLoop=1;jettySize=auto;html=1;entryX=0;entryY=0.5;entryDx=0;entryDy=0;" parent="50ml9UzkDoaz7rRn15qy-21" source="q9BfA_OA_zZqtC3AqU1K-177" target="q9BfA_OA_zZqtC3AqU1K-178" edge="1">
          <mxGeometry relative="1" as="geometry" />
        </mxCell>
        <mxCell id="cP15I9SIxFx9GSkLht3O-19" style="edgeStyle=orthogonalEdgeStyle;rounded=0;orthogonalLoop=1;jettySize=auto;html=1;" parent="50ml9UzkDoaz7rRn15qy-21" source="q9BfA_OA_zZqtC3AqU1K-179" edge="1">
          <mxGeometry relative="1" as="geometry">
            <mxPoint x="250" y="45.71428571428572" as="targetPoint" />
          </mxGeometry>
        </mxCell>
        <mxCell id="q9BfA_OA_zZqtC3AqU1K-179" value="ID" style="ellipse;whiteSpace=wrap;html=1;container=0;" parent="50ml9UzkDoaz7rRn15qy-21" vertex="1">
          <mxGeometry x="230" y="75.35714285714278" width="40" height="42.85714285714286" as="geometry" />
        </mxCell>
        <mxCell id="cP15I9SIxFx9GSkLht3O-18" style="edgeStyle=orthogonalEdgeStyle;rounded=0;orthogonalLoop=1;jettySize=auto;html=1;entryX=0;entryY=0.5;entryDx=0;entryDy=0;" parent="50ml9UzkDoaz7rRn15qy-21" source="q9BfA_OA_zZqtC3AqU1K-178" target="q9BfA_OA_zZqtC3AqU1K-179" edge="1">
          <mxGeometry relative="1" as="geometry" />
        </mxCell>
        <mxCell id="cP15I9SIxFx9GSkLht3O-21" style="edgeStyle=orthogonalEdgeStyle;rounded=0;orthogonalLoop=1;jettySize=auto;html=1;" parent="50ml9UzkDoaz7rRn15qy-21" source="q9BfA_OA_zZqtC3AqU1K-180" edge="1">
          <mxGeometry relative="1" as="geometry">
            <mxPoint x="60" y="85.35428571428571" as="targetPoint" />
          </mxGeometry>
        </mxCell>
        <mxCell id="q9BfA_OA_zZqtC3AqU1K-180" value="," style="ellipse;whiteSpace=wrap;html=1;container=0;" parent="50ml9UzkDoaz7rRn15qy-21" vertex="1">
          <mxGeometry x="130" y="103.75142857142862" width="40" height="42.85714285714286" as="geometry" />
        </mxCell>
        <mxCell id="cP15I9SIxFx9GSkLht3O-20" style="edgeStyle=orthogonalEdgeStyle;rounded=0;orthogonalLoop=1;jettySize=auto;html=1;entryX=1;entryY=0.5;entryDx=0;entryDy=0;" parent="50ml9UzkDoaz7rRn15qy-21" source="q9BfA_OA_zZqtC3AqU1K-179" target="q9BfA_OA_zZqtC3AqU1K-180" edge="1">
          <mxGeometry relative="1" as="geometry">
            <mxPoint x="250" y="175.71428571428572" as="targetPoint" />
            <Array as="points">
              <mxPoint x="250" y="125.35428571428571" />
            </Array>
          </mxGeometry>
        </mxCell>
        <mxCell id="50ml9UzkDoaz7rRn15qy-27" style="edgeStyle=orthogonalEdgeStyle;rounded=0;orthogonalLoop=1;jettySize=auto;html=1;entryX=0;entryY=0.5;entryDx=0;entryDy=0;" edge="1" parent="1" source="50ml9UzkDoaz7rRn15qy-24" target="q9BfA_OA_zZqtC3AqU1K-191">
          <mxGeometry relative="1" as="geometry" />
        </mxCell>
        <mxCell id="50ml9UzkDoaz7rRn15qy-30" style="edgeStyle=orthogonalEdgeStyle;rounded=0;orthogonalLoop=1;jettySize=auto;html=1;" edge="1" parent="1" source="50ml9UzkDoaz7rRn15qy-24">
          <mxGeometry relative="1" as="geometry">
            <mxPoint x="-1700" y="460" as="targetPoint" />
            <Array as="points">
              <mxPoint x="-1570" y="464" />
              <mxPoint x="-1570" y="430" />
              <mxPoint x="-1710" y="430" />
              <mxPoint x="-1710" y="460" />
            </Array>
          </mxGeometry>
        </mxCell>
        <mxCell id="50ml9UzkDoaz7rRn15qy-24" value="&amp;lt;p_var_declaration&amp;gt;" style="rounded=1;whiteSpace=wrap;html=1;container=0;" vertex="1" parent="1">
          <mxGeometry x="-1695" y="450" width="105" height="27.5" as="geometry" />
        </mxCell>
        <mxCell id="50ml9UzkDoaz7rRn15qy-31" value="" style="group" connectable="0" vertex="1" parent="1">
          <mxGeometry x="-2080" y="715.4000000000001" width="305" height="186.25" as="geometry" />
        </mxCell>
        <mxCell id="50ml9UzkDoaz7rRn15qy-32" value="" style="rounded=0;whiteSpace=wrap;html=1;fillColor=#dae8fc;strokeColor=#6c8ebf;" vertex="1" parent="50ml9UzkDoaz7rRn15qy-31">
          <mxGeometry x="10" width="295" height="186.25" as="geometry" />
        </mxCell>
        <mxCell id="50ml9UzkDoaz7rRn15qy-33" style="edgeStyle=orthogonalEdgeStyle;rounded=0;orthogonalLoop=1;jettySize=auto;html=1;" edge="1" parent="50ml9UzkDoaz7rRn15qy-31" source="50ml9UzkDoaz7rRn15qy-35">
          <mxGeometry relative="1" as="geometry">
            <mxPoint x="295.0100000000002" y="81.25" as="targetPoint" />
          </mxGeometry>
        </mxCell>
        <mxCell id="50ml9UzkDoaz7rRn15qy-34" style="edgeStyle=orthogonalEdgeStyle;rounded=0;orthogonalLoop=1;jettySize=auto;html=1;" edge="1" parent="50ml9UzkDoaz7rRn15qy-31" source="50ml9UzkDoaz7rRn15qy-35">
          <mxGeometry relative="1" as="geometry">
            <mxPoint x="195" y="136.25" as="targetPoint" />
            <Array as="points">
              <mxPoint x="235" y="81.25" />
              <mxPoint x="235" y="136.25" />
            </Array>
          </mxGeometry>
        </mxCell>
        <mxCell id="50ml9UzkDoaz7rRn15qy-35" value="&amp;lt;p_term&amp;gt;" style="rounded=1;whiteSpace=wrap;html=1;" vertex="1" parent="50ml9UzkDoaz7rRn15qy-31">
          <mxGeometry x="95" y="67.5" width="105" height="27.5" as="geometry" />
        </mxCell>
        <mxCell id="50ml9UzkDoaz7rRn15qy-36" style="edgeStyle=orthogonalEdgeStyle;rounded=0;orthogonalLoop=1;jettySize=auto;html=1;entryX=0;entryY=0.5;entryDx=0;entryDy=0;" edge="1" parent="50ml9UzkDoaz7rRn15qy-31" target="50ml9UzkDoaz7rRn15qy-35">
          <mxGeometry relative="1" as="geometry">
            <Array as="points">
              <mxPoint x="55" y="81.25" />
            </Array>
            <mxPoint x="55" y="43.749999999999886" as="sourcePoint" />
          </mxGeometry>
        </mxCell>
        <mxCell id="50ml9UzkDoaz7rRn15qy-37" value="-" style="ellipse;whiteSpace=wrap;html=1;" vertex="1" parent="50ml9UzkDoaz7rRn15qy-31">
          <mxGeometry x="120" y="145" width="60" height="30" as="geometry" />
        </mxCell>
        <mxCell id="50ml9UzkDoaz7rRn15qy-38" style="edgeStyle=orthogonalEdgeStyle;rounded=0;orthogonalLoop=1;jettySize=auto;html=1;entryX=0;entryY=0.5;entryDx=0;entryDy=0;endArrow=none;endFill=0;" edge="1" parent="50ml9UzkDoaz7rRn15qy-31" source="50ml9UzkDoaz7rRn15qy-40" target="50ml9UzkDoaz7rRn15qy-37">
          <mxGeometry relative="1" as="geometry">
            <Array as="points">
              <mxPoint x="95" y="121.25" />
              <mxPoint x="95" y="160.25" />
            </Array>
          </mxGeometry>
        </mxCell>
        <mxCell id="50ml9UzkDoaz7rRn15qy-39" style="edgeStyle=orthogonalEdgeStyle;rounded=0;orthogonalLoop=1;jettySize=auto;html=1;" edge="1" parent="50ml9UzkDoaz7rRn15qy-31" source="50ml9UzkDoaz7rRn15qy-40">
          <mxGeometry relative="1" as="geometry">
            <mxPoint x="65" y="76.25" as="targetPoint" />
          </mxGeometry>
        </mxCell>
        <mxCell id="50ml9UzkDoaz7rRn15qy-40" value="+" style="ellipse;whiteSpace=wrap;html=1;" vertex="1" parent="50ml9UzkDoaz7rRn15qy-31">
          <mxGeometry x="117.5" y="106.25" width="60" height="30" as="geometry" />
        </mxCell>
        <mxCell id="50ml9UzkDoaz7rRn15qy-41" style="edgeStyle=orthogonalEdgeStyle;rounded=0;orthogonalLoop=1;jettySize=auto;html=1;entryX=1;entryY=0.5;entryDx=0;entryDy=0;endArrow=none;endFill=0;" edge="1" parent="50ml9UzkDoaz7rRn15qy-31" source="50ml9UzkDoaz7rRn15qy-37" target="50ml9UzkDoaz7rRn15qy-40">
          <mxGeometry relative="1" as="geometry">
            <Array as="points">
              <mxPoint x="198" y="160.25" />
              <mxPoint x="198" y="121.25" />
            </Array>
          </mxGeometry>
        </mxCell>
        <mxCell id="50ml9UzkDoaz7rRn15qy-42" value="&amp;lt;p_m_expression&amp;gt;" style="text;html=1;align=center;verticalAlign=middle;resizable=1;points=[];autosize=1;strokeColor=none;fillColor=none;movable=1;rotatable=1;deletable=1;editable=1;locked=0;connectable=1;container=0;" vertex="1" parent="50ml9UzkDoaz7rRn15qy-31">
          <mxGeometry y="19.999999999999886" width="130" height="30" as="geometry" />
        </mxCell>
        <mxCell id="kk3THTOy6dKuFwCp_Lxx-38" value="" style="rounded=0;whiteSpace=wrap;html=1;fillColor=#dae8fc;strokeColor=#6c8ebf;container=0;" parent="1" vertex="1">
          <mxGeometry x="-2376.25" y="715.4" width="296.25" height="216.25" as="geometry" />
        </mxCell>
        <mxCell id="kk3THTOy6dKuFwCp_Lxx-7" value="&amp;lt;p_g_expression&amp;gt;" style="text;html=1;align=center;verticalAlign=middle;resizable=1;points=[];autosize=1;strokeColor=none;fillColor=none;movable=1;rotatable=1;deletable=1;editable=1;locked=0;connectable=1;container=0;" parent="1" vertex="1">
          <mxGeometry x="-2376.25" y="728.65" width="100.85714285714286" height="25.95" as="geometry" />
        </mxCell>
        <mxCell id="kk3THTOy6dKuFwCp_Lxx-13" value="&amp;lt;" style="ellipse;whiteSpace=wrap;html=1;container=0;" parent="1" vertex="1">
          <mxGeometry x="-2279.5990476190477" y="800.15" width="50.42857142857143" height="25.95" as="geometry" />
        </mxCell>
        <mxCell id="kk3THTOy6dKuFwCp_Lxx-14" value="&amp;gt;" style="ellipse;whiteSpace=wrap;html=1;container=0;" parent="1" vertex="1">
          <mxGeometry x="-2282.499047619048" y="832.45" width="50.42857142857143" height="25.95" as="geometry" />
        </mxCell>
        <mxCell id="kk3THTOy6dKuFwCp_Lxx-15" value="==" style="ellipse;whiteSpace=wrap;html=1;container=0;" parent="1" vertex="1">
          <mxGeometry x="-2279.5990476190477" y="867.05" width="50.42857142857143" height="25.95" as="geometry" />
        </mxCell>
        <mxCell id="kk3THTOy6dKuFwCp_Lxx-16" value="!=" style="ellipse;whiteSpace=wrap;html=1;container=0;" parent="1" vertex="1">
          <mxGeometry x="-2282.499047619048" y="901.65" width="50.42857142857143" height="25.95" as="geometry" />
        </mxCell>
        <mxCell id="kk3THTOy6dKuFwCp_Lxx-27" style="edgeStyle=orthogonalEdgeStyle;rounded=0;orthogonalLoop=1;jettySize=auto;html=1;" parent="1" source="kk3THTOy6dKuFwCp_Lxx-23" edge="1">
          <mxGeometry relative="1" as="geometry">
            <mxPoint x="-2110" y="775" as="targetPoint" />
          </mxGeometry>
        </mxCell>
        <mxCell id="kk3THTOy6dKuFwCp_Lxx-28" style="edgeStyle=orthogonalEdgeStyle;rounded=0;orthogonalLoop=1;jettySize=auto;html=1;entryX=0;entryY=0.5;entryDx=0;entryDy=0;" parent="1" source="kk3THTOy6dKuFwCp_Lxx-23" target="kk3THTOy6dKuFwCp_Lxx-13" edge="1">
          <mxGeometry relative="1" as="geometry">
            <Array as="points">
              <mxPoint x="-2300" y="811" />
            </Array>
          </mxGeometry>
        </mxCell>
        <mxCell id="kk3THTOy6dKuFwCp_Lxx-29" style="edgeStyle=orthogonalEdgeStyle;rounded=0;orthogonalLoop=1;jettySize=auto;html=1;entryX=0;entryY=0.5;entryDx=0;entryDy=0;" parent="1" source="kk3THTOy6dKuFwCp_Lxx-23" target="kk3THTOy6dKuFwCp_Lxx-14" edge="1">
          <mxGeometry relative="1" as="geometry">
            <Array as="points">
              <mxPoint x="-2300" y="845" />
            </Array>
          </mxGeometry>
        </mxCell>
        <mxCell id="kk3THTOy6dKuFwCp_Lxx-30" style="edgeStyle=orthogonalEdgeStyle;rounded=0;orthogonalLoop=1;jettySize=auto;html=1;entryX=0;entryY=0.5;entryDx=0;entryDy=0;" parent="1" source="kk3THTOy6dKuFwCp_Lxx-23" target="kk3THTOy6dKuFwCp_Lxx-15" edge="1">
          <mxGeometry relative="1" as="geometry">
            <Array as="points">
              <mxPoint x="-2300" y="880" />
            </Array>
          </mxGeometry>
        </mxCell>
        <mxCell id="kk3THTOy6dKuFwCp_Lxx-31" style="edgeStyle=orthogonalEdgeStyle;rounded=0;orthogonalLoop=1;jettySize=auto;html=1;entryX=0;entryY=0.5;entryDx=0;entryDy=0;" parent="1" source="kk3THTOy6dKuFwCp_Lxx-23" target="kk3THTOy6dKuFwCp_Lxx-16" edge="1">
          <mxGeometry relative="1" as="geometry">
            <Array as="points">
              <mxPoint x="-2300" y="915" />
            </Array>
          </mxGeometry>
        </mxCell>
        <mxCell id="kk3THTOy6dKuFwCp_Lxx-23" value="&amp;lt;p_m_expression&amp;gt;" style="rounded=1;whiteSpace=wrap;html=1;container=0;" parent="1" vertex="1">
          <mxGeometry x="-2304.809523809524" y="763.25" width="100.85714285714286" height="23.787499999999994" as="geometry" />
        </mxCell>
        <mxCell id="kk3THTOy6dKuFwCp_Lxx-26" style="edgeStyle=orthogonalEdgeStyle;rounded=0;orthogonalLoop=1;jettySize=auto;html=1;entryX=0;entryY=0.5;entryDx=0;entryDy=0;" parent="1" source="kk3THTOy6dKuFwCp_Lxx-7" target="kk3THTOy6dKuFwCp_Lxx-23" edge="1">
          <mxGeometry relative="1" as="geometry" />
        </mxCell>
        <mxCell id="50ml9UzkDoaz7rRn15qy-43" style="edgeStyle=orthogonalEdgeStyle;rounded=0;orthogonalLoop=1;jettySize=auto;html=1;" edge="1" parent="1" source="kk3THTOy6dKuFwCp_Lxx-24">
          <mxGeometry relative="1" as="geometry">
            <mxPoint x="-2144.178095238095" y="770" as="targetPoint" />
          </mxGeometry>
        </mxCell>
        <mxCell id="kk3THTOy6dKuFwCp_Lxx-24" value="&amp;lt;p_m_expression&amp;gt;" style="rounded=1;whiteSpace=wrap;html=1;container=0;" parent="1" vertex="1">
          <mxGeometry x="-2194.6066666666666" y="843.2625" width="100.85714285714286" height="23.787499999999994" as="geometry" />
        </mxCell>
        <mxCell id="kk3THTOy6dKuFwCp_Lxx-32" style="edgeStyle=orthogonalEdgeStyle;rounded=0;orthogonalLoop=1;jettySize=auto;html=1;entryX=0;entryY=0.5;entryDx=0;entryDy=0;" parent="1" source="kk3THTOy6dKuFwCp_Lxx-13" target="kk3THTOy6dKuFwCp_Lxx-24" edge="1">
          <mxGeometry relative="1" as="geometry" />
        </mxCell>
        <mxCell id="kk3THTOy6dKuFwCp_Lxx-33" style="edgeStyle=orthogonalEdgeStyle;rounded=0;orthogonalLoop=1;jettySize=auto;html=1;entryX=0;entryY=0.5;entryDx=0;entryDy=0;" parent="1" source="kk3THTOy6dKuFwCp_Lxx-14" target="kk3THTOy6dKuFwCp_Lxx-24" edge="1">
          <mxGeometry relative="1" as="geometry" />
        </mxCell>
        <mxCell id="kk3THTOy6dKuFwCp_Lxx-34" style="edgeStyle=orthogonalEdgeStyle;rounded=0;orthogonalLoop=1;jettySize=auto;html=1;entryX=0;entryY=0.5;entryDx=0;entryDy=0;" parent="1" source="kk3THTOy6dKuFwCp_Lxx-15" target="kk3THTOy6dKuFwCp_Lxx-24" edge="1">
          <mxGeometry relative="1" as="geometry" />
        </mxCell>
        <mxCell id="kk3THTOy6dKuFwCp_Lxx-35" style="edgeStyle=orthogonalEdgeStyle;rounded=0;orthogonalLoop=1;jettySize=auto;html=1;entryX=0;entryY=0.5;entryDx=0;entryDy=0;" parent="1" source="kk3THTOy6dKuFwCp_Lxx-16" target="kk3THTOy6dKuFwCp_Lxx-24" edge="1">
          <mxGeometry relative="1" as="geometry">
            <Array as="points">
              <mxPoint x="-2212" y="915" />
              <mxPoint x="-2212" y="855" />
            </Array>
          </mxGeometry>
        </mxCell>
        <mxCell id="50ml9UzkDoaz7rRn15qy-49" value="" style="group" vertex="1" connectable="0" parent="1">
          <mxGeometry x="-1790" y="927.6" width="440" height="93.75000000000011" as="geometry" />
        </mxCell>
        <mxCell id="2kbyXSlBpGEsI-lO2bje-23" value="" style="rounded=0;whiteSpace=wrap;html=1;fillColor=#dae8fc;strokeColor=#6c8ebf;container=0;" parent="50ml9UzkDoaz7rRn15qy-49" vertex="1">
          <mxGeometry width="440" height="93.75" as="geometry" />
        </mxCell>
        <mxCell id="I_-5iONSv9XTGy1BqQFn-11" value="&lt;span style=&quot;color: rgb(0, 0, 0); font-family: Helvetica; font-size: 12px; font-style: normal; font-variant-ligatures: normal; font-variant-caps: normal; font-weight: 400; letter-spacing: normal; orphans: 2; text-align: center; text-indent: 0px; text-transform: none; widows: 2; word-spacing: 0px; -webkit-text-stroke-width: 0px; text-decoration-thickness: initial; text-decoration-style: initial; text-decoration-color: initial; float: none; display: inline !important;&quot;&gt;&amp;lt;p_assignation&amp;gt;&lt;/span&gt;" style="text;whiteSpace=wrap;html=1;container=0;" parent="50ml9UzkDoaz7rRn15qy-49" vertex="1">
          <mxGeometry x="6.25" y="12.100000000000023" width="100" height="40" as="geometry" />
        </mxCell>
        <mxCell id="50ml9UzkDoaz7rRn15qy-56" style="edgeStyle=orthogonalEdgeStyle;rounded=0;orthogonalLoop=1;jettySize=auto;html=1;entryX=0.5;entryY=1;entryDx=0;entryDy=0;" edge="1" parent="50ml9UzkDoaz7rRn15qy-49" source="I_-5iONSv9XTGy1BqQFn-27" target="I_-5iONSv9XTGy1BqQFn-11">
          <mxGeometry relative="1" as="geometry" />
        </mxCell>
        <mxCell id="I_-5iONSv9XTGy1BqQFn-27" value="&amp;lt;p_variable&amp;gt;" style="rounded=1;whiteSpace=wrap;html=1;container=0;" parent="50ml9UzkDoaz7rRn15qy-49" vertex="1">
          <mxGeometry x="76.25" y="52.664444444444484" width="105" height="30.555555555555557" as="geometry" />
        </mxCell>
        <mxCell id="50ml9UzkDoaz7rRn15qy-47" style="edgeStyle=orthogonalEdgeStyle;rounded=0;orthogonalLoop=1;jettySize=auto;html=1;entryX=0;entryY=0.75;entryDx=0;entryDy=0;" edge="1" parent="50ml9UzkDoaz7rRn15qy-49" source="I_-5iONSv9XTGy1BqQFn-11" target="I_-5iONSv9XTGy1BqQFn-27">
          <mxGeometry relative="1" as="geometry" />
        </mxCell>
        <mxCell id="I_-5iONSv9XTGy1BqQFn-29" value="=" style="ellipse;whiteSpace=wrap;html=1;container=0;" parent="50ml9UzkDoaz7rRn15qy-49" vertex="1">
          <mxGeometry x="216.25" y="53.22000000000003" width="60" height="30" as="geometry" />
        </mxCell>
        <mxCell id="I_-5iONSv9XTGy1BqQFn-33" style="edgeStyle=orthogonalEdgeStyle;rounded=0;orthogonalLoop=1;jettySize=auto;html=1;entryX=0;entryY=0.5;entryDx=0;entryDy=0;" parent="50ml9UzkDoaz7rRn15qy-49" source="I_-5iONSv9XTGy1BqQFn-27" target="I_-5iONSv9XTGy1BqQFn-29" edge="1">
          <mxGeometry relative="1" as="geometry" />
        </mxCell>
        <mxCell id="I_-5iONSv9XTGy1BqQFn-30" value="&amp;lt;p_expression&amp;gt;" style="rounded=1;whiteSpace=wrap;html=1;container=0;" parent="50ml9UzkDoaz7rRn15qy-49" vertex="1">
          <mxGeometry x="306.25" y="52.664444444444484" width="105" height="30.555555555555557" as="geometry" />
        </mxCell>
        <mxCell id="I_-5iONSv9XTGy1BqQFn-34" style="edgeStyle=orthogonalEdgeStyle;rounded=0;orthogonalLoop=1;jettySize=auto;html=1;" parent="50ml9UzkDoaz7rRn15qy-49" source="I_-5iONSv9XTGy1BqQFn-29" target="I_-5iONSv9XTGy1BqQFn-30" edge="1">
          <mxGeometry relative="1" as="geometry" />
        </mxCell>
        <mxCell id="50ml9UzkDoaz7rRn15qy-50" value="" style="group" vertex="1" connectable="0" parent="1">
          <mxGeometry x="-1790" y="1030" width="440" height="140" as="geometry" />
        </mxCell>
        <mxCell id="2kbyXSlBpGEsI-lO2bje-26" value="" style="rounded=0;whiteSpace=wrap;html=1;fillColor=#dae8fc;strokeColor=#6c8ebf;" parent="50ml9UzkDoaz7rRn15qy-50" vertex="1">
          <mxGeometry width="440" height="140" as="geometry" />
        </mxCell>
        <mxCell id="I_-5iONSv9XTGy1BqQFn-35" value="&lt;span style=&quot;color: rgb(0, 0, 0); font-family: Helvetica; font-size: 12px; font-style: normal; font-variant-ligatures: normal; font-variant-caps: normal; font-weight: 400; letter-spacing: normal; orphans: 2; text-align: center; text-indent: 0px; text-transform: none; widows: 2; word-spacing: 0px; -webkit-text-stroke-width: 0px; text-decoration-thickness: initial; text-decoration-style: initial; text-decoration-color: initial; float: none; display: inline !important;&quot;&gt;&amp;lt;p_invocation&amp;gt;&lt;/span&gt;" style="text;whiteSpace=wrap;html=1;" parent="50ml9UzkDoaz7rRn15qy-50" vertex="1">
          <mxGeometry width="100" height="40" as="geometry" />
        </mxCell>
        <mxCell id="I_-5iONSv9XTGy1BqQFn-36" value="ID" style="ellipse;whiteSpace=wrap;html=1;" parent="50ml9UzkDoaz7rRn15qy-50" vertex="1">
          <mxGeometry x="70" y="45" width="60" height="30" as="geometry" />
        </mxCell>
        <mxCell id="I_-5iONSv9XTGy1BqQFn-41" style="edgeStyle=orthogonalEdgeStyle;rounded=0;orthogonalLoop=1;jettySize=auto;html=1;entryX=0;entryY=0.5;entryDx=0;entryDy=0;" parent="50ml9UzkDoaz7rRn15qy-50" source="I_-5iONSv9XTGy1BqQFn-35" target="I_-5iONSv9XTGy1BqQFn-36" edge="1">
          <mxGeometry relative="1" as="geometry" />
        </mxCell>
        <mxCell id="I_-5iONSv9XTGy1BqQFn-37" value="(" style="ellipse;whiteSpace=wrap;html=1;" parent="50ml9UzkDoaz7rRn15qy-50" vertex="1">
          <mxGeometry x="150" y="45" width="60" height="30" as="geometry" />
        </mxCell>
        <mxCell id="I_-5iONSv9XTGy1BqQFn-42" style="edgeStyle=orthogonalEdgeStyle;rounded=0;orthogonalLoop=1;jettySize=auto;html=1;" parent="50ml9UzkDoaz7rRn15qy-50" source="I_-5iONSv9XTGy1BqQFn-36" target="I_-5iONSv9XTGy1BqQFn-37" edge="1">
          <mxGeometry relative="1" as="geometry" />
        </mxCell>
        <mxCell id="I_-5iONSv9XTGy1BqQFn-38" value="&amp;lt;p_expression&amp;gt;" style="rounded=1;whiteSpace=wrap;html=1;" parent="50ml9UzkDoaz7rRn15qy-50" vertex="1">
          <mxGeometry x="240" y="44.72444444444454" width="105" height="30.555555555555557" as="geometry" />
        </mxCell>
        <mxCell id="I_-5iONSv9XTGy1BqQFn-43" style="edgeStyle=orthogonalEdgeStyle;rounded=0;orthogonalLoop=1;jettySize=auto;html=1;entryX=0;entryY=0.5;entryDx=0;entryDy=0;" parent="50ml9UzkDoaz7rRn15qy-50" source="I_-5iONSv9XTGy1BqQFn-37" target="I_-5iONSv9XTGy1BqQFn-38" edge="1">
          <mxGeometry relative="1" as="geometry" />
        </mxCell>
        <mxCell id="I_-5iONSv9XTGy1BqQFn-39" value=")" style="ellipse;whiteSpace=wrap;html=1;" parent="50ml9UzkDoaz7rRn15qy-50" vertex="1">
          <mxGeometry x="380" y="44.72000000000003" width="60" height="30" as="geometry" />
        </mxCell>
        <mxCell id="I_-5iONSv9XTGy1BqQFn-44" style="edgeStyle=orthogonalEdgeStyle;rounded=0;orthogonalLoop=1;jettySize=auto;html=1;" parent="50ml9UzkDoaz7rRn15qy-50" source="I_-5iONSv9XTGy1BqQFn-38" target="I_-5iONSv9XTGy1BqQFn-39" edge="1">
          <mxGeometry relative="1" as="geometry" />
        </mxCell>
        <mxCell id="I_-5iONSv9XTGy1BqQFn-46" style="edgeStyle=orthogonalEdgeStyle;rounded=0;orthogonalLoop=1;jettySize=auto;html=1;" parent="50ml9UzkDoaz7rRn15qy-50" source="I_-5iONSv9XTGy1BqQFn-40" edge="1">
          <mxGeometry relative="1" as="geometry">
            <mxPoint x="220" y="60" as="targetPoint" />
          </mxGeometry>
        </mxCell>
        <mxCell id="I_-5iONSv9XTGy1BqQFn-40" value="," style="ellipse;whiteSpace=wrap;html=1;" parent="50ml9UzkDoaz7rRn15qy-50" vertex="1">
          <mxGeometry x="260" y="100" width="60" height="30" as="geometry" />
        </mxCell>
        <mxCell id="I_-5iONSv9XTGy1BqQFn-45" style="edgeStyle=orthogonalEdgeStyle;rounded=0;orthogonalLoop=1;jettySize=auto;html=1;entryX=1;entryY=0.5;entryDx=0;entryDy=0;" parent="50ml9UzkDoaz7rRn15qy-50" source="I_-5iONSv9XTGy1BqQFn-38" target="I_-5iONSv9XTGy1BqQFn-40" edge="1">
          <mxGeometry relative="1" as="geometry">
            <Array as="points">
              <mxPoint x="360" y="60" />
              <mxPoint x="360" y="115" />
            </Array>
          </mxGeometry>
        </mxCell>
        <mxCell id="50ml9UzkDoaz7rRn15qy-52" value="" style="group" vertex="1" connectable="0" parent="1">
          <mxGeometry x="-1860" y="1180" width="770" height="120" as="geometry" />
        </mxCell>
        <mxCell id="2kbyXSlBpGEsI-lO2bje-27" value="" style="rounded=0;whiteSpace=wrap;html=1;fillColor=#dae8fc;strokeColor=#6c8ebf;" parent="50ml9UzkDoaz7rRn15qy-52" vertex="1">
          <mxGeometry width="770" height="120" as="geometry" />
        </mxCell>
        <mxCell id="I_-5iONSv9XTGy1BqQFn-47" value="&lt;span style=&quot;color: rgb(0, 0, 0); font-family: Helvetica; font-size: 12px; font-style: normal; font-variant-ligatures: normal; font-variant-caps: normal; font-weight: 400; letter-spacing: normal; orphans: 2; text-align: center; text-indent: 0px; text-transform: none; widows: 2; word-spacing: 0px; -webkit-text-stroke-width: 0px; text-decoration-thickness: initial; text-decoration-style: initial; text-decoration-color: initial; float: none; display: inline !important;&quot;&gt;&amp;lt;p_if&amp;gt;&lt;/span&gt;" style="text;whiteSpace=wrap;html=1;" parent="50ml9UzkDoaz7rRn15qy-52" vertex="1">
          <mxGeometry x="10" width="50" height="30" as="geometry" />
        </mxCell>
        <mxCell id="I_-5iONSv9XTGy1BqQFn-48" value="if" style="ellipse;whiteSpace=wrap;html=1;" parent="50ml9UzkDoaz7rRn15qy-52" vertex="1">
          <mxGeometry x="55" y="40" width="60" height="30" as="geometry" />
        </mxCell>
        <mxCell id="I_-5iONSv9XTGy1BqQFn-56" style="edgeStyle=orthogonalEdgeStyle;rounded=0;orthogonalLoop=1;jettySize=auto;html=1;entryX=0;entryY=0.5;entryDx=0;entryDy=0;" parent="50ml9UzkDoaz7rRn15qy-52" source="I_-5iONSv9XTGy1BqQFn-47" target="I_-5iONSv9XTGy1BqQFn-48" edge="1">
          <mxGeometry relative="1" as="geometry" />
        </mxCell>
        <mxCell id="I_-5iONSv9XTGy1BqQFn-49" value="(" style="ellipse;whiteSpace=wrap;html=1;" parent="50ml9UzkDoaz7rRn15qy-52" vertex="1">
          <mxGeometry x="130" y="40" width="60" height="30" as="geometry" />
        </mxCell>
        <mxCell id="I_-5iONSv9XTGy1BqQFn-57" style="edgeStyle=orthogonalEdgeStyle;rounded=0;orthogonalLoop=1;jettySize=auto;html=1;entryX=0;entryY=0.5;entryDx=0;entryDy=0;" parent="50ml9UzkDoaz7rRn15qy-52" source="I_-5iONSv9XTGy1BqQFn-48" target="I_-5iONSv9XTGy1BqQFn-49" edge="1">
          <mxGeometry relative="1" as="geometry" />
        </mxCell>
        <mxCell id="I_-5iONSv9XTGy1BqQFn-50" value=")" style="ellipse;whiteSpace=wrap;html=1;" parent="50ml9UzkDoaz7rRn15qy-52" vertex="1">
          <mxGeometry x="340" y="39.440000000000055" width="60" height="30" as="geometry" />
        </mxCell>
        <mxCell id="I_-5iONSv9XTGy1BqQFn-59" style="edgeStyle=orthogonalEdgeStyle;rounded=0;orthogonalLoop=1;jettySize=auto;html=1;entryX=0;entryY=0.5;entryDx=0;entryDy=0;" parent="50ml9UzkDoaz7rRn15qy-52" source="I_-5iONSv9XTGy1BqQFn-51" target="I_-5iONSv9XTGy1BqQFn-50" edge="1">
          <mxGeometry relative="1" as="geometry" />
        </mxCell>
        <mxCell id="I_-5iONSv9XTGy1BqQFn-51" value="&amp;lt;p_expression&amp;gt;" style="rounded=1;whiteSpace=wrap;html=1;" parent="50ml9UzkDoaz7rRn15qy-52" vertex="1">
          <mxGeometry x="210" y="39.44444444444434" width="105" height="30.555555555555557" as="geometry" />
        </mxCell>
        <mxCell id="I_-5iONSv9XTGy1BqQFn-58" style="edgeStyle=orthogonalEdgeStyle;rounded=0;orthogonalLoop=1;jettySize=auto;html=1;entryX=0;entryY=0.5;entryDx=0;entryDy=0;" parent="50ml9UzkDoaz7rRn15qy-52" source="I_-5iONSv9XTGy1BqQFn-49" target="I_-5iONSv9XTGy1BqQFn-51" edge="1">
          <mxGeometry relative="1" as="geometry" />
        </mxCell>
        <mxCell id="I_-5iONSv9XTGy1BqQFn-65" style="edgeStyle=orthogonalEdgeStyle;rounded=0;orthogonalLoop=1;jettySize=auto;html=1;" parent="50ml9UzkDoaz7rRn15qy-52" source="I_-5iONSv9XTGy1BqQFn-52" edge="1">
          <mxGeometry relative="1" as="geometry">
            <mxPoint x="642.5" y="50" as="targetPoint" />
          </mxGeometry>
        </mxCell>
        <mxCell id="I_-5iONSv9XTGy1BqQFn-52" value="&amp;lt;p_body&amp;gt;" style="rounded=1;whiteSpace=wrap;html=1;" parent="50ml9UzkDoaz7rRn15qy-52" vertex="1">
          <mxGeometry x="590" y="79.44444444444434" width="105" height="30.555555555555557" as="geometry" />
        </mxCell>
        <mxCell id="I_-5iONSv9XTGy1BqQFn-64" style="edgeStyle=orthogonalEdgeStyle;rounded=0;orthogonalLoop=1;jettySize=auto;html=1;entryX=0;entryY=0.5;entryDx=0;entryDy=0;" parent="50ml9UzkDoaz7rRn15qy-52" source="I_-5iONSv9XTGy1BqQFn-53" target="I_-5iONSv9XTGy1BqQFn-52" edge="1">
          <mxGeometry relative="1" as="geometry" />
        </mxCell>
        <mxCell id="I_-5iONSv9XTGy1BqQFn-53" value="ELSE" style="ellipse;whiteSpace=wrap;html=1;" parent="50ml9UzkDoaz7rRn15qy-52" vertex="1">
          <mxGeometry x="510" y="80" width="60" height="30" as="geometry" />
        </mxCell>
        <mxCell id="I_-5iONSv9XTGy1BqQFn-63" style="edgeStyle=orthogonalEdgeStyle;rounded=0;orthogonalLoop=1;jettySize=auto;html=1;entryX=0;entryY=0.5;entryDx=0;entryDy=0;" parent="50ml9UzkDoaz7rRn15qy-52" source="I_-5iONSv9XTGy1BqQFn-54" target="I_-5iONSv9XTGy1BqQFn-53" edge="1">
          <mxGeometry relative="1" as="geometry" />
        </mxCell>
        <mxCell id="I_-5iONSv9XTGy1BqQFn-54" value="&amp;lt;p_body&amp;gt;" style="rounded=1;whiteSpace=wrap;html=1;" parent="50ml9UzkDoaz7rRn15qy-52" vertex="1">
          <mxGeometry x="430" y="40.004444444444516" width="105" height="30.555555555555557" as="geometry" />
        </mxCell>
        <mxCell id="I_-5iONSv9XTGy1BqQFn-60" style="edgeStyle=orthogonalEdgeStyle;rounded=0;orthogonalLoop=1;jettySize=auto;html=1;entryX=0;entryY=0.5;entryDx=0;entryDy=0;" parent="50ml9UzkDoaz7rRn15qy-52" source="I_-5iONSv9XTGy1BqQFn-50" target="I_-5iONSv9XTGy1BqQFn-54" edge="1">
          <mxGeometry relative="1" as="geometry" />
        </mxCell>
        <mxCell id="I_-5iONSv9XTGy1BqQFn-55" value=";" style="ellipse;whiteSpace=wrap;html=1;" parent="50ml9UzkDoaz7rRn15qy-52" vertex="1">
          <mxGeometry x="680" y="39.440000000000055" width="60" height="30" as="geometry" />
        </mxCell>
        <mxCell id="I_-5iONSv9XTGy1BqQFn-62" style="edgeStyle=orthogonalEdgeStyle;rounded=0;orthogonalLoop=1;jettySize=auto;html=1;entryX=0;entryY=0.5;entryDx=0;entryDy=0;" parent="50ml9UzkDoaz7rRn15qy-52" source="I_-5iONSv9XTGy1BqQFn-54" target="I_-5iONSv9XTGy1BqQFn-55" edge="1">
          <mxGeometry relative="1" as="geometry" />
        </mxCell>
        <mxCell id="50ml9UzkDoaz7rRn15qy-54" value="" style="group" vertex="1" connectable="0" parent="1">
          <mxGeometry x="-1860" y="1410" width="532.5" height="170.27999999999997" as="geometry" />
        </mxCell>
        <mxCell id="2kbyXSlBpGEsI-lO2bje-30" value="" style="rounded=0;whiteSpace=wrap;html=1;fillColor=#dae8fc;strokeColor=#6c8ebf;" parent="50ml9UzkDoaz7rRn15qy-54" vertex="1">
          <mxGeometry width="532.5" height="170.28" as="geometry" />
        </mxCell>
        <mxCell id="I_-5iONSv9XTGy1BqQFn-73" value="&lt;span style=&quot;color: rgb(0, 0, 0); font-family: Helvetica; font-size: 12px; font-style: normal; font-variant-ligatures: normal; font-variant-caps: normal; font-weight: 400; letter-spacing: normal; orphans: 2; text-align: center; text-indent: 0px; text-transform: none; widows: 2; word-spacing: 0px; -webkit-text-stroke-width: 0px; text-decoration-thickness: initial; text-decoration-style: initial; text-decoration-color: initial; float: none; display: inline !important;&quot;&gt;&amp;lt;p_print&amp;gt;&lt;/span&gt;" style="text;whiteSpace=wrap;html=1;" parent="50ml9UzkDoaz7rRn15qy-54" vertex="1">
          <mxGeometry x="27.5" y="0.2799999999999727" width="50" height="30" as="geometry" />
        </mxCell>
        <mxCell id="I_-5iONSv9XTGy1BqQFn-74" value="PRINT" style="ellipse;whiteSpace=wrap;html=1;" parent="50ml9UzkDoaz7rRn15qy-54" vertex="1">
          <mxGeometry x="72.5" y="40.27999999999997" width="60" height="30" as="geometry" />
        </mxCell>
        <mxCell id="I_-5iONSv9XTGy1BqQFn-75" style="edgeStyle=orthogonalEdgeStyle;rounded=0;orthogonalLoop=1;jettySize=auto;html=1;entryX=0;entryY=0.5;entryDx=0;entryDy=0;" parent="50ml9UzkDoaz7rRn15qy-54" source="I_-5iONSv9XTGy1BqQFn-73" target="I_-5iONSv9XTGy1BqQFn-74" edge="1">
          <mxGeometry relative="1" as="geometry" />
        </mxCell>
        <mxCell id="I_-5iONSv9XTGy1BqQFn-76" value="(" style="ellipse;whiteSpace=wrap;html=1;" parent="50ml9UzkDoaz7rRn15qy-54" vertex="1">
          <mxGeometry x="177.5" y="40.559999999999945" width="60" height="30" as="geometry" />
        </mxCell>
        <mxCell id="I_-5iONSv9XTGy1BqQFn-77" style="edgeStyle=orthogonalEdgeStyle;rounded=0;orthogonalLoop=1;jettySize=auto;html=1;entryX=0;entryY=0.5;entryDx=0;entryDy=0;" parent="50ml9UzkDoaz7rRn15qy-54" source="I_-5iONSv9XTGy1BqQFn-74" target="I_-5iONSv9XTGy1BqQFn-76" edge="1">
          <mxGeometry relative="1" as="geometry" />
        </mxCell>
        <mxCell id="I_-5iONSv9XTGy1BqQFn-78" value="&amp;lt;p_expression&amp;gt;" style="rounded=1;whiteSpace=wrap;html=1;" parent="50ml9UzkDoaz7rRn15qy-54" vertex="1">
          <mxGeometry x="232.5" y="0.0044444444445161935" width="105" height="30.555555555555557" as="geometry" />
        </mxCell>
        <mxCell id="I_-5iONSv9XTGy1BqQFn-84" style="edgeStyle=orthogonalEdgeStyle;rounded=0;orthogonalLoop=1;jettySize=auto;html=1;entryX=0;entryY=0.5;entryDx=0;entryDy=0;" parent="50ml9UzkDoaz7rRn15qy-54" source="I_-5iONSv9XTGy1BqQFn-76" target="I_-5iONSv9XTGy1BqQFn-78" edge="1">
          <mxGeometry relative="1" as="geometry" />
        </mxCell>
        <mxCell id="I_-5iONSv9XTGy1BqQFn-80" value="CTES" style="ellipse;whiteSpace=wrap;html=1;" parent="50ml9UzkDoaz7rRn15qy-54" vertex="1">
          <mxGeometry x="237.5" y="80.55999999999995" width="100" height="30" as="geometry" />
        </mxCell>
        <mxCell id="I_-5iONSv9XTGy1BqQFn-85" style="edgeStyle=orthogonalEdgeStyle;rounded=0;orthogonalLoop=1;jettySize=auto;html=1;entryX=0;entryY=0.5;entryDx=0;entryDy=0;" parent="50ml9UzkDoaz7rRn15qy-54" source="I_-5iONSv9XTGy1BqQFn-76" target="I_-5iONSv9XTGy1BqQFn-80" edge="1">
          <mxGeometry relative="1" as="geometry" />
        </mxCell>
        <mxCell id="I_-5iONSv9XTGy1BqQFn-88" style="edgeStyle=orthogonalEdgeStyle;rounded=0;orthogonalLoop=1;jettySize=auto;html=1;" parent="50ml9UzkDoaz7rRn15qy-54" source="I_-5iONSv9XTGy1BqQFn-81" edge="1">
          <mxGeometry relative="1" as="geometry">
            <mxPoint x="502.5" y="55.559999999999945" as="targetPoint" />
          </mxGeometry>
        </mxCell>
        <mxCell id="I_-5iONSv9XTGy1BqQFn-81" value=")" style="ellipse;whiteSpace=wrap;html=1;" parent="50ml9UzkDoaz7rRn15qy-54" vertex="1">
          <mxGeometry x="342.5" y="40.559999999999945" width="60" height="30" as="geometry" />
        </mxCell>
        <mxCell id="I_-5iONSv9XTGy1BqQFn-86" style="edgeStyle=orthogonalEdgeStyle;rounded=0;orthogonalLoop=1;jettySize=auto;html=1;entryX=0.5;entryY=0;entryDx=0;entryDy=0;" parent="50ml9UzkDoaz7rRn15qy-54" source="I_-5iONSv9XTGy1BqQFn-78" target="I_-5iONSv9XTGy1BqQFn-81" edge="1">
          <mxGeometry relative="1" as="geometry" />
        </mxCell>
        <mxCell id="I_-5iONSv9XTGy1BqQFn-87" style="edgeStyle=orthogonalEdgeStyle;rounded=0;orthogonalLoop=1;jettySize=auto;html=1;entryX=0.5;entryY=1;entryDx=0;entryDy=0;" parent="50ml9UzkDoaz7rRn15qy-54" source="I_-5iONSv9XTGy1BqQFn-80" target="I_-5iONSv9XTGy1BqQFn-81" edge="1">
          <mxGeometry relative="1" as="geometry" />
        </mxCell>
        <mxCell id="I_-5iONSv9XTGy1BqQFn-90" style="edgeStyle=orthogonalEdgeStyle;rounded=0;orthogonalLoop=1;jettySize=auto;html=1;" parent="50ml9UzkDoaz7rRn15qy-54" source="I_-5iONSv9XTGy1BqQFn-83" edge="1">
          <mxGeometry relative="1" as="geometry">
            <mxPoint x="152.5" y="60.27999999999997" as="targetPoint" />
          </mxGeometry>
        </mxCell>
        <mxCell id="I_-5iONSv9XTGy1BqQFn-83" value="," style="ellipse;whiteSpace=wrap;html=1;" parent="50ml9UzkDoaz7rRn15qy-54" vertex="1">
          <mxGeometry x="252.5" y="130.27999999999997" width="60" height="30" as="geometry" />
        </mxCell>
        <mxCell id="I_-5iONSv9XTGy1BqQFn-89" style="edgeStyle=orthogonalEdgeStyle;rounded=0;orthogonalLoop=1;jettySize=auto;html=1;entryX=1;entryY=0.5;entryDx=0;entryDy=0;" parent="50ml9UzkDoaz7rRn15qy-54" source="I_-5iONSv9XTGy1BqQFn-81" target="I_-5iONSv9XTGy1BqQFn-83" edge="1">
          <mxGeometry relative="1" as="geometry">
            <Array as="points">
              <mxPoint x="412.5" y="55.27999999999997" />
              <mxPoint x="412.5" y="145.27999999999997" />
            </Array>
          </mxGeometry>
        </mxCell>
        <mxCell id="50ml9UzkDoaz7rRn15qy-72" value="" style="group" vertex="1" connectable="0" parent="1">
          <mxGeometry x="-1410" y="432.45" width="290" height="407.55" as="geometry" />
        </mxCell>
        <mxCell id="2kbyXSlBpGEsI-lO2bje-21" value="" style="rounded=0;whiteSpace=wrap;html=1;fillColor=#dae8fc;strokeColor=#6c8ebf;container=0;" parent="50ml9UzkDoaz7rRn15qy-72" vertex="1">
          <mxGeometry width="290" height="407.55" as="geometry" />
        </mxCell>
        <mxCell id="I_-5iONSv9XTGy1BqQFn-1" value="&lt;span style=&quot;color: rgb(0, 0, 0); font-family: Helvetica; font-size: 12px; font-style: normal; font-variant-ligatures: normal; font-variant-caps: normal; font-weight: 400; letter-spacing: normal; orphans: 2; text-align: center; text-indent: 0px; text-transform: none; widows: 2; word-spacing: 0px; -webkit-text-stroke-width: 0px; text-decoration-thickness: initial; text-decoration-style: initial; text-decoration-color: initial; float: none; display: inline !important;&quot;&gt;&amp;lt;p_statement&amp;gt;&lt;/span&gt;" style="text;whiteSpace=wrap;html=1;container=0;" parent="50ml9UzkDoaz7rRn15qy-72" vertex="1">
          <mxGeometry x="10" y="2.829999999999984" width="100" height="40" as="geometry" />
        </mxCell>
        <mxCell id="I_-5iONSv9XTGy1BqQFn-19" style="edgeStyle=orthogonalEdgeStyle;rounded=0;orthogonalLoop=1;jettySize=auto;html=1;" parent="50ml9UzkDoaz7rRn15qy-72" source="I_-5iONSv9XTGy1BqQFn-2" edge="1">
          <mxGeometry relative="1" as="geometry">
            <mxPoint x="270" y="68.11222222222233" as="targetPoint" />
          </mxGeometry>
        </mxCell>
        <mxCell id="I_-5iONSv9XTGy1BqQFn-2" value="&amp;lt;p_assingation&amp;gt;" style="rounded=1;whiteSpace=wrap;html=1;container=0;" parent="50ml9UzkDoaz7rRn15qy-72" vertex="1">
          <mxGeometry x="100" y="52.8344444444445" width="105" height="30.555555555555557" as="geometry" />
        </mxCell>
        <mxCell id="I_-5iONSv9XTGy1BqQFn-3" style="edgeStyle=orthogonalEdgeStyle;rounded=0;orthogonalLoop=1;jettySize=auto;html=1;entryX=0;entryY=0.5;entryDx=0;entryDy=0;" parent="50ml9UzkDoaz7rRn15qy-72" source="I_-5iONSv9XTGy1BqQFn-1" target="I_-5iONSv9XTGy1BqQFn-2" edge="1">
          <mxGeometry relative="1" as="geometry" />
        </mxCell>
        <mxCell id="I_-5iONSv9XTGy1BqQFn-20" style="edgeStyle=orthogonalEdgeStyle;rounded=0;orthogonalLoop=1;jettySize=auto;html=1;" parent="50ml9UzkDoaz7rRn15qy-72" source="I_-5iONSv9XTGy1BqQFn-4" edge="1">
          <mxGeometry relative="1" as="geometry">
            <mxPoint x="230" y="62.829999999999984" as="targetPoint" />
          </mxGeometry>
        </mxCell>
        <mxCell id="I_-5iONSv9XTGy1BqQFn-4" value="&amp;lt;p_invocation&amp;gt;" style="rounded=1;whiteSpace=wrap;html=1;container=0;" parent="50ml9UzkDoaz7rRn15qy-72" vertex="1">
          <mxGeometry x="100" y="92.8344444444445" width="105" height="30.555555555555557" as="geometry" />
        </mxCell>
        <mxCell id="I_-5iONSv9XTGy1BqQFn-12" style="edgeStyle=orthogonalEdgeStyle;rounded=0;orthogonalLoop=1;jettySize=auto;html=1;entryX=0;entryY=0.5;entryDx=0;entryDy=0;" parent="50ml9UzkDoaz7rRn15qy-72" source="I_-5iONSv9XTGy1BqQFn-1" target="I_-5iONSv9XTGy1BqQFn-4" edge="1">
          <mxGeometry relative="1" as="geometry" />
        </mxCell>
        <mxCell id="I_-5iONSv9XTGy1BqQFn-21" style="edgeStyle=orthogonalEdgeStyle;rounded=0;orthogonalLoop=1;jettySize=auto;html=1;" parent="50ml9UzkDoaz7rRn15qy-72" source="I_-5iONSv9XTGy1BqQFn-5" edge="1">
          <mxGeometry relative="1" as="geometry">
            <mxPoint x="230" y="62.829999999999984" as="targetPoint" />
          </mxGeometry>
        </mxCell>
        <mxCell id="I_-5iONSv9XTGy1BqQFn-5" value="&amp;lt;p_if&amp;gt;" style="rounded=1;whiteSpace=wrap;html=1;container=0;" parent="50ml9UzkDoaz7rRn15qy-72" vertex="1">
          <mxGeometry x="100" y="132.8344444444445" width="105" height="30.555555555555557" as="geometry" />
        </mxCell>
        <mxCell id="I_-5iONSv9XTGy1BqQFn-13" style="edgeStyle=orthogonalEdgeStyle;rounded=0;orthogonalLoop=1;jettySize=auto;html=1;entryX=0;entryY=0.5;entryDx=0;entryDy=0;" parent="50ml9UzkDoaz7rRn15qy-72" source="I_-5iONSv9XTGy1BqQFn-1" target="I_-5iONSv9XTGy1BqQFn-5" edge="1">
          <mxGeometry relative="1" as="geometry" />
        </mxCell>
        <mxCell id="I_-5iONSv9XTGy1BqQFn-22" style="edgeStyle=orthogonalEdgeStyle;rounded=0;orthogonalLoop=1;jettySize=auto;html=1;" parent="50ml9UzkDoaz7rRn15qy-72" source="I_-5iONSv9XTGy1BqQFn-6" edge="1">
          <mxGeometry relative="1" as="geometry">
            <mxPoint x="230" y="62.829999999999984" as="targetPoint" />
          </mxGeometry>
        </mxCell>
        <mxCell id="I_-5iONSv9XTGy1BqQFn-6" value="&amp;lt;p_read&amp;gt;" style="rounded=1;whiteSpace=wrap;html=1;container=0;" parent="50ml9UzkDoaz7rRn15qy-72" vertex="1">
          <mxGeometry x="100" y="172.27444444444444" width="105" height="30.555555555555557" as="geometry" />
        </mxCell>
        <mxCell id="I_-5iONSv9XTGy1BqQFn-14" style="edgeStyle=orthogonalEdgeStyle;rounded=0;orthogonalLoop=1;jettySize=auto;html=1;entryX=0;entryY=0.5;entryDx=0;entryDy=0;" parent="50ml9UzkDoaz7rRn15qy-72" source="I_-5iONSv9XTGy1BqQFn-1" target="I_-5iONSv9XTGy1BqQFn-6" edge="1">
          <mxGeometry relative="1" as="geometry" />
        </mxCell>
        <mxCell id="I_-5iONSv9XTGy1BqQFn-23" style="edgeStyle=orthogonalEdgeStyle;rounded=0;orthogonalLoop=1;jettySize=auto;html=1;" parent="50ml9UzkDoaz7rRn15qy-72" source="I_-5iONSv9XTGy1BqQFn-7" edge="1">
          <mxGeometry relative="1" as="geometry">
            <mxPoint x="230" y="62.829999999999984" as="targetPoint" />
          </mxGeometry>
        </mxCell>
        <mxCell id="I_-5iONSv9XTGy1BqQFn-7" value="&amp;lt;p_print&amp;gt;" style="rounded=1;whiteSpace=wrap;html=1;container=0;" parent="50ml9UzkDoaz7rRn15qy-72" vertex="1">
          <mxGeometry x="100" y="212.8344444444445" width="105" height="30.555555555555557" as="geometry" />
        </mxCell>
        <mxCell id="I_-5iONSv9XTGy1BqQFn-15" style="edgeStyle=orthogonalEdgeStyle;rounded=0;orthogonalLoop=1;jettySize=auto;html=1;entryX=0;entryY=0.5;entryDx=0;entryDy=0;" parent="50ml9UzkDoaz7rRn15qy-72" source="I_-5iONSv9XTGy1BqQFn-1" target="I_-5iONSv9XTGy1BqQFn-7" edge="1">
          <mxGeometry relative="1" as="geometry" />
        </mxCell>
        <mxCell id="I_-5iONSv9XTGy1BqQFn-24" style="edgeStyle=orthogonalEdgeStyle;rounded=0;orthogonalLoop=1;jettySize=auto;html=1;" parent="50ml9UzkDoaz7rRn15qy-72" source="I_-5iONSv9XTGy1BqQFn-8" edge="1">
          <mxGeometry relative="1" as="geometry">
            <mxPoint x="230" y="62.829999999999984" as="targetPoint" />
          </mxGeometry>
        </mxCell>
        <mxCell id="I_-5iONSv9XTGy1BqQFn-8" value="&amp;lt;p_while&amp;gt;" style="rounded=1;whiteSpace=wrap;html=1;container=0;" parent="50ml9UzkDoaz7rRn15qy-72" vertex="1">
          <mxGeometry x="100" y="252.8344444444445" width="105" height="30.555555555555557" as="geometry" />
        </mxCell>
        <mxCell id="I_-5iONSv9XTGy1BqQFn-16" style="edgeStyle=orthogonalEdgeStyle;rounded=0;orthogonalLoop=1;jettySize=auto;html=1;entryX=0;entryY=0.5;entryDx=0;entryDy=0;" parent="50ml9UzkDoaz7rRn15qy-72" source="I_-5iONSv9XTGy1BqQFn-1" target="I_-5iONSv9XTGy1BqQFn-8" edge="1">
          <mxGeometry relative="1" as="geometry" />
        </mxCell>
        <mxCell id="I_-5iONSv9XTGy1BqQFn-25" style="edgeStyle=orthogonalEdgeStyle;rounded=0;orthogonalLoop=1;jettySize=auto;html=1;" parent="50ml9UzkDoaz7rRn15qy-72" source="I_-5iONSv9XTGy1BqQFn-9" edge="1">
          <mxGeometry relative="1" as="geometry">
            <mxPoint x="230" y="62.829999999999984" as="targetPoint" />
          </mxGeometry>
        </mxCell>
        <mxCell id="I_-5iONSv9XTGy1BqQFn-9" value="&amp;lt;p_for&amp;gt;" style="rounded=1;whiteSpace=wrap;html=1;container=0;" parent="50ml9UzkDoaz7rRn15qy-72" vertex="1">
          <mxGeometry x="100" y="292.8344444444445" width="105" height="30.555555555555557" as="geometry" />
        </mxCell>
        <mxCell id="I_-5iONSv9XTGy1BqQFn-17" style="edgeStyle=orthogonalEdgeStyle;rounded=0;orthogonalLoop=1;jettySize=auto;html=1;entryX=0;entryY=0.5;entryDx=0;entryDy=0;" parent="50ml9UzkDoaz7rRn15qy-72" source="I_-5iONSv9XTGy1BqQFn-1" target="I_-5iONSv9XTGy1BqQFn-9" edge="1">
          <mxGeometry relative="1" as="geometry" />
        </mxCell>
        <mxCell id="I_-5iONSv9XTGy1BqQFn-26" style="edgeStyle=orthogonalEdgeStyle;rounded=0;orthogonalLoop=1;jettySize=auto;html=1;" parent="50ml9UzkDoaz7rRn15qy-72" source="I_-5iONSv9XTGy1BqQFn-10" edge="1">
          <mxGeometry relative="1" as="geometry">
            <mxPoint x="230" y="62.829999999999984" as="targetPoint" />
          </mxGeometry>
        </mxCell>
        <mxCell id="I_-5iONSv9XTGy1BqQFn-10" value="&amp;lt;p_special&amp;gt;" style="rounded=1;whiteSpace=wrap;html=1;container=0;" parent="50ml9UzkDoaz7rRn15qy-72" vertex="1">
          <mxGeometry x="100" y="332.27444444444444" width="105" height="30.555555555555557" as="geometry" />
        </mxCell>
        <mxCell id="I_-5iONSv9XTGy1BqQFn-18" style="edgeStyle=orthogonalEdgeStyle;rounded=0;orthogonalLoop=1;jettySize=auto;html=1;entryX=0;entryY=0.5;entryDx=0;entryDy=0;" parent="50ml9UzkDoaz7rRn15qy-72" source="I_-5iONSv9XTGy1BqQFn-1" target="I_-5iONSv9XTGy1BqQFn-10" edge="1">
          <mxGeometry relative="1" as="geometry" />
        </mxCell>
        <mxCell id="50ml9UzkDoaz7rRn15qy-73" style="edgeStyle=orthogonalEdgeStyle;rounded=0;orthogonalLoop=1;jettySize=auto;html=1;" edge="1" parent="50ml9UzkDoaz7rRn15qy-72" source="50ml9UzkDoaz7rRn15qy-69">
          <mxGeometry relative="1" as="geometry">
            <mxPoint x="230" y="67.55000000000001" as="targetPoint" />
          </mxGeometry>
        </mxCell>
        <mxCell id="50ml9UzkDoaz7rRn15qy-69" value="&amp;lt;p_return&amp;gt;" style="rounded=1;whiteSpace=wrap;html=1;container=0;" vertex="1" parent="50ml9UzkDoaz7rRn15qy-72">
          <mxGeometry x="100" y="369.4444444444444" width="105" height="30.555555555555557" as="geometry" />
        </mxCell>
        <mxCell id="50ml9UzkDoaz7rRn15qy-70" style="edgeStyle=orthogonalEdgeStyle;rounded=0;orthogonalLoop=1;jettySize=auto;html=1;entryX=0;entryY=0.5;entryDx=0;entryDy=0;" edge="1" parent="50ml9UzkDoaz7rRn15qy-72" source="I_-5iONSv9XTGy1BqQFn-1" target="50ml9UzkDoaz7rRn15qy-69">
          <mxGeometry relative="1" as="geometry" />
        </mxCell>
        <mxCell id="2kbyXSlBpGEsI-lO2bje-29" value="" style="rounded=0;whiteSpace=wrap;html=1;fillColor=#dae8fc;strokeColor=#6c8ebf;container=0;" parent="1" vertex="1">
          <mxGeometry x="-1850" y="1300" width="400" height="93.75" as="geometry" />
        </mxCell>
        <mxCell id="I_-5iONSv9XTGy1BqQFn-66" value="&lt;span style=&quot;color: rgb(0, 0, 0); font-family: Helvetica; font-size: 12px; font-style: normal; font-variant-ligatures: normal; font-variant-caps: normal; font-weight: 400; letter-spacing: normal; orphans: 2; text-align: center; text-indent: 0px; text-transform: none; widows: 2; word-spacing: 0px; -webkit-text-stroke-width: 0px; text-decoration-thickness: initial; text-decoration-style: initial; text-decoration-color: initial; float: none; display: inline !important;&quot;&gt;&amp;lt;p_read&amp;gt;&lt;/span&gt;" style="text;whiteSpace=wrap;html=1;container=0;" parent="1" vertex="1">
          <mxGeometry x="-1832.5" y="1310" width="50" height="30" as="geometry" />
        </mxCell>
        <mxCell id="50ml9UzkDoaz7rRn15qy-117" style="edgeStyle=orthogonalEdgeStyle;rounded=0;orthogonalLoop=1;jettySize=auto;html=1;entryX=0;entryY=0.5;entryDx=0;entryDy=0;" edge="1" parent="1" source="I_-5iONSv9XTGy1BqQFn-67" target="50ml9UzkDoaz7rRn15qy-115">
          <mxGeometry relative="1" as="geometry" />
        </mxCell>
        <mxCell id="I_-5iONSv9XTGy1BqQFn-67" value="READ" style="ellipse;whiteSpace=wrap;html=1;container=0;" parent="1" vertex="1">
          <mxGeometry x="-1782.5" y="1350" width="60" height="30" as="geometry" />
        </mxCell>
        <mxCell id="I_-5iONSv9XTGy1BqQFn-70" style="edgeStyle=orthogonalEdgeStyle;rounded=0;orthogonalLoop=1;jettySize=auto;html=1;entryX=0;entryY=0.5;entryDx=0;entryDy=0;" parent="1" source="I_-5iONSv9XTGy1BqQFn-66" target="I_-5iONSv9XTGy1BqQFn-67" edge="1">
          <mxGeometry relative="1" as="geometry" />
        </mxCell>
        <mxCell id="50ml9UzkDoaz7rRn15qy-119" style="edgeStyle=orthogonalEdgeStyle;rounded=0;orthogonalLoop=1;jettySize=auto;html=1;" edge="1" parent="1" source="I_-5iONSv9XTGy1BqQFn-69" target="50ml9UzkDoaz7rRn15qy-116">
          <mxGeometry relative="1" as="geometry" />
        </mxCell>
        <mxCell id="I_-5iONSv9XTGy1BqQFn-69" value="&amp;lt;p_variable&amp;gt;" style="rounded=1;whiteSpace=wrap;html=1;container=0;" parent="1" vertex="1">
          <mxGeometry x="-1640" y="1350.0044444444445" width="105" height="30.555555555555557" as="geometry" />
        </mxCell>
        <mxCell id="50ml9UzkDoaz7rRn15qy-118" style="edgeStyle=orthogonalEdgeStyle;rounded=0;orthogonalLoop=1;jettySize=auto;html=1;entryX=0;entryY=0.5;entryDx=0;entryDy=0;" edge="1" parent="1" source="50ml9UzkDoaz7rRn15qy-115" target="I_-5iONSv9XTGy1BqQFn-69">
          <mxGeometry relative="1" as="geometry" />
        </mxCell>
        <mxCell id="50ml9UzkDoaz7rRn15qy-115" value="(" style="ellipse;whiteSpace=wrap;html=1;" vertex="1" parent="1">
          <mxGeometry x="-1700" y="1350" width="36.25" height="30" as="geometry" />
        </mxCell>
        <mxCell id="50ml9UzkDoaz7rRn15qy-116" value=")" style="ellipse;whiteSpace=wrap;html=1;" vertex="1" parent="1">
          <mxGeometry x="-1510" y="1350" width="36.25" height="30" as="geometry" />
        </mxCell>
        <mxCell id="50ml9UzkDoaz7rRn15qy-121" value="&lt;span style=&quot;color: rgb(0, 0, 0); font-family: Helvetica; font-size: 12px; font-style: normal; font-variant-ligatures: normal; font-variant-caps: normal; font-weight: 400; letter-spacing: normal; orphans: 2; text-align: center; text-indent: 0px; text-transform: none; widows: 2; word-spacing: 0px; -webkit-text-stroke-width: 0px; text-decoration-thickness: initial; text-decoration-style: initial; text-decoration-color: initial; float: none; display: inline !important;&quot;&gt;&amp;lt;p_return&amp;gt;&lt;/span&gt;" style="text;whiteSpace=wrap;html=1;container=0;" vertex="1" parent="1">
          <mxGeometry x="-1302.5" y="1065.69" width="50" height="30" as="geometry" />
        </mxCell>
        <mxCell id="50ml9UzkDoaz7rRn15qy-122" style="edgeStyle=orthogonalEdgeStyle;rounded=0;orthogonalLoop=1;jettySize=auto;html=1;entryX=0;entryY=0.5;entryDx=0;entryDy=0;" edge="1" parent="1" source="50ml9UzkDoaz7rRn15qy-123">
          <mxGeometry relative="1" as="geometry">
            <mxPoint x="-1170" y="1120.6899999999998" as="targetPoint" />
          </mxGeometry>
        </mxCell>
        <mxCell id="50ml9UzkDoaz7rRn15qy-123" value="RETURN" style="ellipse;whiteSpace=wrap;html=1;container=0;" vertex="1" parent="1">
          <mxGeometry x="-1252.5" y="1105.69" width="60" height="30" as="geometry" />
        </mxCell>
        <mxCell id="50ml9UzkDoaz7rRn15qy-124" style="edgeStyle=orthogonalEdgeStyle;rounded=0;orthogonalLoop=1;jettySize=auto;html=1;entryX=0;entryY=0.5;entryDx=0;entryDy=0;" edge="1" parent="1" source="50ml9UzkDoaz7rRn15qy-121" target="50ml9UzkDoaz7rRn15qy-123">
          <mxGeometry relative="1" as="geometry" />
        </mxCell>
        <mxCell id="50ml9UzkDoaz7rRn15qy-154" style="edgeStyle=orthogonalEdgeStyle;rounded=0;orthogonalLoop=1;jettySize=auto;html=1;entryX=0;entryY=0.5;entryDx=0;entryDy=0;" edge="1" parent="1" source="50ml9UzkDoaz7rRn15qy-150" target="50ml9UzkDoaz7rRn15qy-153">
          <mxGeometry relative="1" as="geometry" />
        </mxCell>
        <mxCell id="50ml9UzkDoaz7rRn15qy-150" value="&amp;lt;p_expression&amp;gt;" style="rounded=1;whiteSpace=wrap;html=1;" vertex="1" parent="1">
          <mxGeometry x="-1170" y="1105.1344444444444" width="105" height="30.555555555555557" as="geometry" />
        </mxCell>
        <mxCell id="50ml9UzkDoaz7rRn15qy-153" value=";" style="ellipse;whiteSpace=wrap;html=1;" vertex="1" parent="1">
          <mxGeometry x="-1040" y="1105.13" width="60" height="30" as="geometry" />
        </mxCell>
      </root>
    </mxGraphModel>
  </diagram>
</mxfile>
